<?xml version="1.0" encoding="UTF-8"?>
<svg id="Layer_1" data-name="Layer 1" xmlns="http://www.w3.org/2000/svg" viewBox="0 0 768 747.06">
  <defs>
    <style>
      .cls-1, .cls-2 {
        fill: #9dbdbb;
      }

      .cls-1, .cls-3, .cls-4, .cls-5 {
        stroke-width: 0px;
      }

      .cls-6 {
        stroke-width: 28.28px;
      }

      .cls-6, .cls-7, .cls-8, .cls-2, .cls-9, .cls-10 {
        stroke-linecap: round;
      }

      .cls-6, .cls-7, .cls-8, .cls-2, .cls-10 {
        stroke: #fff;
        stroke-linejoin: round;
      }

      .cls-6, .cls-7, .cls-3 {
        fill: #e96c53;
      }

      .cls-7, .cls-8, .cls-2, .cls-10 {
        stroke-width: 45.62px;
      }

      .cls-8, .cls-5 {
        fill: #f4b7ae;
      }

      .cls-9, .cls-11 {
        fill: none;
        stroke: #f5b047;
        stroke-miterlimit: 10;
        stroke-width: 24.98px;
      }

      .cls-10, .cls-4 {
        fill: #f5b047;
      }
    </style>
  </defs>
  <g>
    <g>
      <path class="cls-11" d="M600.52,396.7c-36.14,60.63-87.17,117.33-197.38,113.79-111.3-3.58-212.26-104.18-195.55-248.76"/>
      <line class="cls-9" x1="190.88" y1="251.8" x2="223.48" y2="251.8"/>
      <line class="cls-9" x1="593.26" y1="379.13" x2="622.42" y2="395.43"/>
    </g>
    <path class="cls-9" d="M335.02,267.26s13.96-14.38,26.46-6.38c11.42,7.31,7.56,19.84,2.83,26.22"/>
    <path class="cls-9" d="M459.97,308.01s13.96-14.38,26.46-6.38c11.42,7.31,7.56,19.84,2.83,26.22"/>
  </g>
  <path class="cls-6" d="M528.26,364.12c5.17,0,9.82,1.5,13.96,4.5,4.13,3,7.75,6.16,10.84,9.5l.65-9.14c0-1.4.39-2.6,1.16-3.59.77-.99,1.86-1.49,3.26-1.49s2.6.5,3.59,1.49c.99.99,1.49,2.19,1.49,3.59v65.55c0,1.4-.5,2.6-1.49,3.59-.99.99-2.19,1.49-3.59,1.49s-2.6-.5-3.59-1.49c-.99-.99-1.49-2.19-1.49-3.59v-8.27c-3.19,3.48-6.97,6.62-11.35,9.43-4.38,2.8-8.98,4.21-13.81,4.21s-9.6-1.03-13.85-3.08c-4.25-2.05-7.98-4.85-11.17-8.37-3.19-3.53-5.67-7.55-7.43-12.07-1.77-4.52-2.65-9.27-2.65-14.25s.88-9.68,2.65-14.25c1.76-4.57,4.25-8.63,7.47-12.18,3.21-3.55,6.97-6.37,11.27-8.45,4.3-2.08,8.99-3.12,14.07-3.12ZM553.42,401.68c0-4.69-45.89,21.21-48.14,17.17-2.25-4.04,39.49-37.57,35.7-40.08-3.8-2.51-8.01-3.77-12.65-3.77s-8.89,1.28-12.62,3.84c-3.72,2.56-6.66,5.91-8.81,10.04-2.15,4.13-3.23,8.54-3.23,13.23s1.06,9.02,3.19,13.12c2.13,4.11,5.01,7.43,8.66,9.97,3.65,2.54,7.77,3.81,12.36,3.81s8.89-1.29,12.76-3.88c3.87-2.59,6.96-5.97,9.28-10.15,2.32-4.18,3.48-8.62,3.48-13.31Z"/>
  <g>
    <path class="cls-7" d="M185.15,343.45c0-1.35.51-2.6,1.52-3.73,1.02-1.14,2.32-1.7,3.92-1.7.97,0,1.91.31,2.83.94.92.63,1.62,1.35,2.1,2.18l40.46,66.2,40.89-66.63c1.06-1.74,2.61-2.61,4.64-2.61,1.5,0,2.78.53,3.84,1.6,1.06,1.06,1.6,2.34,1.6,3.84v90.85c0,1.5-.53,2.78-1.6,3.84-1.06,1.06-2.35,1.6-3.84,1.6s-2.78-.53-3.84-1.6c-1.06-1.06-1.6-2.34-1.6-3.84v-71.57l-35.46,57.79c-1.06,1.74-2.61,2.61-4.64,2.61s-3.58-.87-4.64-2.61l-35.31-57.72v71.2c0,1.5-.53,2.78-1.6,3.84-1.06,1.06-2.35,1.59-3.84,1.59s-2.78-.53-3.84-1.59c-1.06-1.06-1.6-2.34-1.6-3.84v-90.63Z"/>
    <path class="cls-10" d="M360.33,440.32c-1.5,0-2.72-.53-3.66-1.6-.94-1.06-1.41-2.34-1.41-3.84l-.36-8.63c-1.69,2.08-3.7,4.19-6.02,6.34-2.32,2.15-4.96,3.94-7.9,5.37-2.95,1.43-6.28,2.14-10.01,2.14-6.38,0-11.53-1.64-15.44-4.93-3.92-3.29-6.76-7.61-8.52-12.98-1.77-5.37-2.65-11.12-2.65-17.26l.07-35.17c0-1.5.53-2.78,1.6-3.84,1.06-1.06,2.34-1.6,3.84-1.6s2.84.53,3.88,1.6c1.04,1.06,1.56,2.37,1.56,3.92l-.07,35.09c0,4.25.44,8.23,1.31,11.93.87,3.7,2.45,6.68,4.75,8.95,2.3,2.27,5.52,3.41,9.68,3.41,7.88,0,13.82-2.1,17.84-6.31,4.01-4.21,6.02-10.13,6.02-17.76v-35.53c0-1.5.53-2.78,1.6-3.84,1.06-1.06,2.34-1.59,3.84-1.59s2.84.53,3.88,1.59c1.04,1.06,1.56,2.37,1.56,3.92l.07,65.11c0,1.5-.52,2.79-1.56,3.88-1.04,1.09-2.33,1.63-3.88,1.63Z"/>
    <path class="cls-8" d="M383.17,343.6c0-1.5.53-2.78,1.6-3.84,1.06-1.06,2.34-1.6,3.84-1.6s2.78.53,3.84,1.6c1.06,1.06,1.6,2.34,1.6,3.84v33.35c2.42-4.01,5.58-7.17,9.5-9.46,3.92-2.3,7.81-3.44,11.67-3.44,10.78,0,18.43,3.23,22.95,9.68,4.52,6.45,6.78,15.12,6.78,25.99v.65l-.07,34.22v.07c0,1.5-.53,2.78-1.6,3.84-1.06,1.06-2.35,1.6-3.84,1.6s-2.78-.53-3.84-1.6c-1.06-1.06-1.6-2.34-1.6-3.84v-.07l.07-34.37c0-7.93-1.22-14.14-3.66-18.63-2.44-4.5-7.21-6.74-14.32-6.74-4.5,0-8.39.94-11.67,2.83-3.29,1.89-5.81,4.28-7.58,7.18-1.76,2.9-2.65,5.85-2.65,8.85v41.04c0,1.5-.53,2.78-1.6,3.84-1.06,1.06-2.35,1.59-3.84,1.59-1.6,0-2.93-.56-3.99-1.67-1.06-1.11-1.6-2.37-1.6-3.77v-91.14Z"/>
    <path class="cls-2" d="M469.96,364.19c1.4,0,2.71.39,3.92,1.16,1.21.77,1.81,1.81,1.81,3.12l.29,67.5c.05,9.23-.51,16.43-1.67,21.61-1.16,5.17-3.4,8.78-6.71,10.84-3.31,2.05-8.16,3.08-14.54,3.08-3.19,0-6.33-.63-9.43-1.89-2.13-.87-3.19-2.63-3.19-5.29,0-1.01.51-2.02,1.52-3.01,1.02-.99,2.03-1.49,3.05-1.49s1.91.14,2.54.43c1.93.82,3.87,1.23,5.8,1.23,4.35,0,7.38-.97,9.1-2.9,1.72-1.93,2.72-4.89,3.01-8.88.29-3.99.41-9,.36-15.05l-.29-66.42c0-.82.53-1.7,1.6-2.65,1.06-.94,2.01-1.41,2.83-1.41Z"/>
    <path class="cls-2" d="M469.96,340.06c1.4,0,2.71.39,3.92,1.16,1.21.77,1.81,1.81,1.81,3.12l.29,67.5c.05,9.23-.51,16.43-1.67,21.61-1.16,5.17-3.4,8.78-6.71,10.84-3.31,2.05-8.16,3.08-14.54,3.08-3.19,0-6.33-.63-9.43-1.89-2.13-.87-3.19-2.63-3.19-5.29,0-1.01.51-2.02,1.52-3.01,1.02-.99,2.03-1.49,3.05-1.49s1.91.14,2.54.43c1.93.82,3.87,1.23,5.8,1.23,4.35,0,7.38-.97,9.1-2.9,1.72-1.93,2.72-4.89,3.01-8.88.29-3.99.41-9,.36-15.05l-.29-66.42c0-.82.53-1.7,1.6-2.65,1.06-.94,2.01-1.41,2.83-1.41Z"/>
    <path class="cls-7" d="M528.26,364.12c5.17,0,9.82,1.5,13.96,4.5,4.13,3,7.75,6.16,10.84,9.5l.65-9.14c0-1.4.39-2.6,1.16-3.59.77-.99,1.86-1.49,3.26-1.49s2.6.5,3.59,1.49c.99.99,1.49,2.19,1.49,3.59v65.55c0,1.4-.5,2.6-1.49,3.59-.99.99-2.19,1.49-3.59,1.49s-2.6-.5-3.59-1.49c-.99-.99-1.49-2.19-1.49-3.59v-8.27c-3.19,3.48-6.97,6.62-11.35,9.43-4.38,2.8-8.98,4.21-13.81,4.21s-9.6-1.03-13.85-3.08c-4.25-2.05-7.98-4.85-11.17-8.37-3.19-3.53-5.67-7.55-7.43-12.07-1.77-4.52-2.65-9.27-2.65-14.25s.88-9.68,2.65-14.25c1.76-4.57,4.25-8.63,7.47-12.18,3.21-3.55,6.97-6.37,11.27-8.45,4.3-2.08,8.99-3.12,14.07-3.12ZM553.42,401.68c0-4.69-45.89,21.21-48.14,17.17-2.25-4.04,39.49-37.57,35.7-40.08-3.8-2.51-8.01-3.77-12.65-3.77s-8.89,1.28-12.62,3.84c-3.72,2.56-6.66,5.91-8.81,10.04-2.15,4.13-3.23,8.54-3.23,13.23s1.06,9.02,3.19,13.12c2.13,4.11,5.01,7.43,8.66,9.97,3.65,2.54,7.77,3.81,12.36,3.81s8.89-1.29,12.76-3.88c3.87-2.59,6.96-5.97,9.28-10.15,2.32-4.18,3.48-8.62,3.48-13.31Z"/>
  </g>
  <g>
    <path class="cls-3" d="M182.49,344.27c0-1.35.51-2.6,1.52-3.73,1.02-1.14,2.32-1.7,3.92-1.7.97,0,1.91.31,2.83.94.92.63,1.62,1.35,2.1,2.18l40.46,66.2,40.89-66.64c1.06-1.74,2.61-2.61,4.64-2.61,1.5,0,2.78.53,3.84,1.59,1.06,1.06,1.6,2.35,1.6,3.84v90.85c0,1.5-.53,2.78-1.6,3.84-1.06,1.06-2.35,1.6-3.84,1.6s-2.78-.53-3.84-1.6c-1.06-1.06-1.6-2.34-1.6-3.84v-71.57l-35.46,57.79c-1.06,1.74-2.61,2.61-4.64,2.61s-3.58-.87-4.64-2.61l-35.31-57.72v71.2c0,1.5-.53,2.78-1.6,3.84-1.06,1.06-2.35,1.59-3.84,1.59s-2.78-.53-3.84-1.59c-1.06-1.06-1.6-2.34-1.6-3.84v-90.64Z"/>
    <path class="cls-4" d="M357.67,441.14c-1.5,0-2.72-.53-3.66-1.6-.94-1.06-1.41-2.34-1.41-3.84l-.36-8.63c-1.69,2.08-3.7,4.19-6.02,6.34-2.32,2.15-4.96,3.94-7.9,5.37-2.95,1.43-6.28,2.14-10.01,2.14-6.38,0-11.53-1.64-15.44-4.93-3.92-3.29-6.76-7.61-8.52-12.98-1.77-5.37-2.65-11.12-2.65-17.26l.07-35.17c0-1.5.53-2.78,1.6-3.84,1.06-1.06,2.34-1.59,3.84-1.59s2.84.53,3.88,1.59c1.04,1.06,1.56,2.37,1.56,3.92l-.07,35.09c0,4.25.44,8.23,1.31,11.93.87,3.7,2.45,6.68,4.75,8.95,2.3,2.27,5.52,3.41,9.68,3.41,7.88,0,13.82-2.1,17.84-6.31,4.01-4.21,6.02-10.13,6.02-17.76v-35.53c0-1.5.53-2.78,1.6-3.84,1.06-1.06,2.34-1.6,3.84-1.6s2.84.53,3.88,1.6c1.04,1.06,1.56,2.37,1.56,3.92l.07,65.11c0,1.5-.52,2.79-1.56,3.88-1.04,1.09-2.33,1.63-3.88,1.63Z"/>
    <path class="cls-5" d="M380.51,344.42c0-1.5.53-2.78,1.6-3.84,1.06-1.06,2.34-1.6,3.84-1.6s2.78.53,3.84,1.6c1.06,1.06,1.6,2.35,1.6,3.84v33.35c2.42-4.01,5.58-7.17,9.5-9.46,3.92-2.3,7.81-3.44,11.67-3.44,10.78,0,18.43,3.23,22.95,9.68,4.52,6.45,6.78,15.12,6.78,25.99v.65l-.07,34.22v.07c0,1.5-.53,2.78-1.6,3.84-1.06,1.06-2.35,1.6-3.84,1.6s-2.78-.53-3.84-1.6c-1.06-1.06-1.6-2.34-1.6-3.84v-.07l.07-34.37c0-7.93-1.22-14.14-3.66-18.63-2.44-4.5-7.21-6.74-14.32-6.74-4.5,0-8.39.94-11.67,2.83-3.29,1.89-5.81,4.28-7.58,7.18-1.76,2.9-2.65,5.85-2.65,8.85v41.04c0,1.5-.53,2.78-1.6,3.84-1.06,1.06-2.35,1.59-3.84,1.59-1.6,0-2.93-.56-3.99-1.67-1.06-1.11-1.6-2.37-1.6-3.77v-91.14Z"/>
    <path class="cls-1" d="M467.3,365.01c1.4,0,2.71.39,3.92,1.16,1.21.77,1.81,1.81,1.81,3.12l.29,67.51c.05,9.23-.51,16.43-1.67,21.61-1.16,5.17-3.4,8.78-6.71,10.84-3.31,2.05-8.16,3.08-14.54,3.08-3.19,0-6.33-.63-9.43-1.89-2.13-.87-3.19-2.63-3.19-5.29,0-1.01.51-2.02,1.52-3.01,1.02-.99,2.03-1.49,3.05-1.49s1.91.14,2.54.43c1.93.82,3.87,1.23,5.8,1.23,4.35,0,7.38-.97,9.1-2.9,1.72-1.93,2.72-4.89,3.01-8.88.29-3.99.41-9,.36-15.05l-.29-66.42c0-.82.53-1.7,1.6-2.65,1.06-.94,2.01-1.41,2.83-1.41Z"/>
    <path class="cls-1" d="M463.17,409.58l-.29-66.42c0-.82.53-1.7,1.6-2.65,1.06-.94,2.01-1.41,2.83-1.41,1.4,0,2.71.39,3.92,1.16,1.21.77,1.81,1.81,1.81,3.12l.29,67.51-10.15-1.31Z"/>
    <path class="cls-3" d="M525.6,364.94c5.17,0,9.82,1.5,13.96,4.5,4.13,3,7.75,6.16,10.84,9.5l.65-9.14c0-1.4.39-2.6,1.16-3.59.77-.99,1.86-1.49,3.26-1.49s2.6.5,3.59,1.49c.99.99,1.49,2.19,1.49,3.59v65.55c0,1.4-.5,2.6-1.49,3.59-.99.99-2.19,1.49-3.59,1.49s-2.6-.5-3.59-1.49c-.99-.99-1.49-2.19-1.49-3.59v-8.27c-3.19,3.48-6.97,6.62-11.35,9.43-4.38,2.8-8.98,4.21-13.81,4.21s-9.6-1.03-13.85-3.08c-4.25-2.05-7.98-4.85-11.17-8.37-3.19-3.53-5.67-7.55-7.43-12.07-1.77-4.52-2.65-9.27-2.65-14.25s.88-9.68,2.65-14.25c1.76-4.57,4.25-8.63,7.47-12.18,3.21-3.55,6.97-6.37,11.27-8.45,4.3-2.08,8.99-3.12,14.07-3.12ZM550.76,402.5c0-4.69-1.12-9.05-3.37-13.09-2.25-4.04-5.27-7.31-9.06-9.82-3.8-2.51-8.01-3.77-12.65-3.77s-8.89,1.28-12.62,3.84c-3.72,2.56-6.66,5.91-8.81,10.04-2.15,4.13-3.23,8.54-3.23,13.23s1.06,9.02,3.19,13.12c2.13,4.11,5.01,7.43,8.66,9.97,3.65,2.54,7.77,3.81,12.36,3.81s8.89-1.29,12.76-3.88c3.87-2.59,6.96-5.97,9.28-10.15,2.32-4.18,3.48-8.62,3.48-13.31Z"/>
  </g>
  <path class="cls-9" d="M459.97,308.01s13.96-14.38,26.46-6.38c11.42,7.31,7.56,19.84,2.83,26.22"/>
  <g>
    <path class="cls-11" d="M528.55,478.36c31.62-21.37,53.7-51.02,71.97-81.68"/>
    <line class="cls-9" x1="593.26" y1="379.11" x2="622.42" y2="395.41"/>
  </g>
</svg>