<?xml version="1.0" encoding="UTF-8"?>
<svg id="Layer_1" data-name="Layer 1" xmlns="http://www.w3.org/2000/svg" xmlns:xlink="http://www.w3.org/1999/xlink" viewBox="0 0 595.28 841.89">
  <defs>
    <style>
      .cls-1 {
        fill: #669786;
      }

      .cls-1, .cls-2, .cls-3, .cls-4, .cls-5, .cls-6, .cls-7, .cls-8, .cls-9, .cls-10, .cls-11, .cls-12, .cls-13, .cls-14, .cls-15, .cls-16, .cls-17 {
        stroke-width: 0px;
      }

      .cls-2 {
        fill: url(#linear-gradient);
      }

      .cls-3 {
        fill: #78afa1;
      }

      .cls-4 {
        fill: #425c4d;
      }

      .cls-5 {
        fill: #ee6463;
      }

      .cls-6 {
        fill: #de5658;
      }

      .cls-7 {
        fill: url(#linear-gradient-2);
      }

      .cls-8 {
        fill: #fff8ee;
      }

      .cls-9 {
        fill: #ba504c;
      }

      .cls-10 {
        fill: #f5866b;
      }

      .cls-11 {
        fill: url(#linear-gradient-3);
      }

      .cls-12 {
        fill: #f9b297;
      }

      .cls-13 {
        fill: #d16a5a;
      }

      .cls-14 {
        fill: #a4383f;
      }

      .cls-15 {
        fill: #d04c50;
      }

      .cls-16 {
        fill: #673a2d;
      }

      .cls-17 {
        fill: #527e6c;
      }
    </style>
    <linearGradient id="linear-gradient" x1="342.21" y1="-938.08" x2="349.79" y2="-946.92" gradientTransform="translate(7.35 -585.43) scale(1 -1)" gradientUnits="userSpaceOnUse">
      <stop offset="0" stop-color="#a53942"/>
      <stop offset="1" stop-color="#d34b51"/>
    </linearGradient>
    <linearGradient id="linear-gradient-2" x1="128.57" y1="-1296.12" x2="190.93" y2="-1316.03" gradientTransform="translate(7.35 -585.43) scale(1 -1)" gradientUnits="userSpaceOnUse">
      <stop offset="0" stop-color="#517c69"/>
      <stop offset="1" stop-color="#629281"/>
    </linearGradient>
    <linearGradient id="linear-gradient-3" x1="446.19" y1="-881.29" x2="506.6" y2="-849.29" gradientTransform="translate(7.35 -585.43) scale(1 -1)" gradientUnits="userSpaceOnUse">
      <stop offset="0" stop-color="#b54b4a"/>
      <stop offset="1" stop-color="#d56b5a"/>
    </linearGradient>
  </defs>
  <path class="cls-5" d="M125.09,316.77c-2.16-9.02-1.63-17.32.53-26.28,2.71-11.27,7.98-21.02,12.43-31.61,5.2-12.35,9.67-24.99,13.37-37.87,9.98-35.32,13.46-72.12,23.73-107.35,12.03-41.3,31.16-74.26,69.97-95.45,31.24-17.05,69.38-19.67,103.35-9.56,28.41,8.46,54.51,28.33,68.59,54.59,15.21,28.37,17.82,64.44,7.22,94.83-1.06,3.03-2.14,6.05-3.67,8.88-2.13,3.93-5.63,8.48-6.83,12.72-.03.11-.06.21-.08.32.66,3.98.95,7.97,1.24,11.99.03,17.72-7.55,37.54-17.43,52.06-2.27,3.91-4.93,7.68-7.74,11.22l-1.1.86c-.26,11.83-.72,23.66-1.37,35.48,2.59,2.06,5.19,4.07,7.48,6.48-.34,1.12-.76,2.26-1.02,3.41-2.24,8.43-3.98,18.59-8.14,26.28-1.94,3.59-5.55,6.22-8.07,9.42-7.5,9.54-9.04,21.64-8.37,33.39l-.28.53c1.77,12.21,6.07,20.73,13.25,30.64l2.9,2.9c5.5,5.05,11.02,10.11,16.92,14.71l3.62,2.24c6.46,3.58,14.53,7.94,22.16,5.71,1.56-.46,3.09-1.03,4.61-1.6,12.5-3.73,23.67-5.05,36.57-3.11,2.98.65,6.17,1.13,9.07,2.11l5.16,1.61c13.27,10.02,10.79,21.04,15.7,33.53,6.33,10.81,15.35,21.58,19.64,33.35,5.5,9.7,6.87,20.5,4.94,31.39.62,5.67,1.67,11.28,1.93,16.98.73,15.27-4.18,30.28-13.8,42.17-7.45,9.25-24.68,22.22-36.9,22.58-.49.01-.52-.01-.93-.09-4.84,10.1-26.01,23.92-36.32,27.57-.73.26-1.22.36-1.99.24.94,6.06,3.7,12.47,5.6,18.33,2.89,8.92,5.51,17.79,7.83,26.88,9.85,38.66,15.58,78.01,19.75,117.64.51,4.87,2.81,12.97,1.1,17.44-1.18.74-1.42.66-2.84.58-3.22,3.18-13.84,5.31-18.6,6.62-46.52,12.78-95.55,17.97-143.75,17.64-37.83,0-75.6-2.94-112.97-8.77-4.09-.62-14.8-1.35-17.79-4-.1-.09-.19-.19-.28-.29-.68.24-1.28.37-2.01.37-1.87,0-3.84-.7-5.15-2.04-.62.21-1.25.37-1.91.32-4.96-.39-37.33-8.97-39.98-11.91-.07.02-.14.05-.21.06-1.23.24-1.49.28-2.54-.4-1.74-5.16,1.26-18.53,1.94-24.26,5.11-42.96,10.58-85.35,24.17-126.65,2.76-8.31,5.81-16.52,9.14-24.61,2.45-5.96,8.63-17.63,9.38-23.34-1.73-.06-3.99-2.17-5.33-3.3-8.09-6.71-14.92-14.81-20.18-23.91-21.42-36.66-38-112.59-41.85-155.02-.74-8.11-1.41-16.61-1.17-24.74.16-5.3,1.32-11.03.79-16.28l-.05-.43c-1.32-2.91-1.88-6.15-2.16-9.31-1.67-18.74,4.29-37.37,16.53-51.65,3.76-4.55,7.66-8.47,12.24-12.21Z"/>
  <path class="cls-6" d="M125.09,316.77c-2.16-9.02-1.63-17.32.53-26.28,2.71-11.27,7.98-21.02,12.43-31.61,5.2-12.35,9.67-24.99,13.37-37.87,9.98-35.32,13.46-72.12,23.73-107.35,12.03-41.3,31.16-74.26,69.97-95.45,31.24-17.05,69.38-19.67,103.35-9.56,28.41,8.46,54.51,28.33,68.59,54.59,15.21,28.37,17.82,64.44,7.22,94.83-1.06,3.03-2.14,6.05-3.67,8.88-2.13,3.93-5.63,8.48-6.83,12.72-.03.11-.06.21-.08.32.66,3.98.95,7.97,1.24,11.99.03,17.72-7.55,37.54-17.43,52.06-2.27,3.91-4.93,7.68-7.74,11.22l-1.1.86c-.26,11.83-.72,23.66-1.37,35.48,2.59,2.06,5.19,4.07,7.48,6.48-.34,1.12-.76,2.26-1.02,3.41-2.24,8.43-3.98,18.59-8.14,26.28-1.94,3.59-5.55,6.22-8.07,9.42-7.5,9.54-9.04,21.64-8.37,33.39l-.28.53c1.77,12.21,6.07,20.73,13.25,30.64-1.78,7.38-5.04,12.15-11.65,16.16-1.53.93-3.18,1.69-4.8,2.44-7.3,2.74-14.67,4.14-22.31,5.57-1.7-4.4-2.6-8.89-3.23-13.55-.06-1.09-.44-2.54-1.25-3.3-.81-.75-1.2-.64-2.24-.64-2.91,1.28-4.12,3.4-5.55,6.09-4.03-2.45-8.15-4.5-12.63-6-5.89-.94-10.7-.54-15.64,3.03-.2.15-.41.3-.61.45-4.48,1.64-8.85,2.79-10.94,7.44-1.15,2.55-.56,5.16-1.49,7.71l.25,1.94c-3.24,2.33-10.81.93-14.77,1.06-9.62-.95-20.33-2.24-29.06-6.7-12.01-6.14-14.42-19.19-18.16-30.95-4.89-2.35-10.4-4.18-14.95-7.13-4.88-3.15-9.29-8.17-14.64-10.37,3.99,14.04,7.08,27.29,8.59,41.83.3,12.13,1.15,33.5-4,44.31-.67-2.84-.59-5.95-.72-8.86,2.13-23.21,2.32-43.05-3.91-65.69-1.07-7.7-6.08-22.76-11.43-28.38-12.59-13.23-29.2-26.37-48.14-26.92-8.63.59-14.74,4.18-20.37,10.67-2.78,3.21-5.06,6.67-7.14,10.37-5.61,6.39-7.35,16.12-10.33,23.84l-1.12,5.35-1.42,8.42c-1.32-2.91-1.88-6.15-2.16-9.31-1.67-18.74,4.29-37.37,16.53-51.65,3.76-4.55,7.66-8.47,12.24-12.21Z"/>
  <path class="cls-12" d="M288.79,93.23c21.06-14.55,52.29-25.14,78.06-20.47,16.59,3.01,32.49,12.43,42.09,26.42,3.87,5.64,7.23,12.16,8.16,19.01.65,1.77,1.21,3.58,2.28,5.14l.8.37c.79,2.88.48,6.3.49,9.27.26,9.76-1.4,18.58-3.47,28.07-.75,3.42-2,7.26-2.23,10.72l-.52.1.02-1.14-.92.02.58-.21-.12.58c-.4,2.04-1.29,7.03-.34,8.87.66,3.98.95,7.97,1.24,11.99.03,17.72-7.55,37.54-17.43,52.06-2.27,3.91-4.93,7.68-7.74,11.22l-1.1.86c-5.59,6.32-10.63,13.02-16.4,19.2-3.22,2.74-6,5.92-9.14,8.74-8.25,7.41-19.03,14.09-30.11,15.94-2.9.48-5.93.37-8.86.55-2.43-.29-4.74-1.18-7.04-1.98l3.76-.39c-14.14-3.95-25.15-9.52-36.61-18.72-23.65-18.99-41.58-46.05-44.81-76.65-4.05-38.37,11.49-66.67,35.42-95.16,4.19-4.99,9.6-8.95,13.59-13.99l.34-.44Z"/>
  <path class="cls-16" d="M417.55,136.12c-2.49-1.77-4.58-4.29-7.01-6.21-9.42-7.46-17.54-7.06-28.78-7.14-2.01-.01-3.06-.32-4.51-1.79-.18-.81-.37-1.19-.06-2,.98-2.49,4.24-4.28,6.57-5.28,6.11-2.64,12.71-2.35,18.81.17,5.97,2.46,12.03,7.83,14.54,13.89.71,2.8,1,5.51.42,8.37Z"/>
  <path class="cls-13" d="M395.73,241.2l1.46.57.31,2.28c-2.27,3.91-4.93,7.68-7.74,11.22l-1.1.86c-5.59,6.32-10.63,13.02-16.4,19.2-3.22,2.74-6,5.92-9.14,8.74-8.25,7.41-19.03,14.09-30.11,15.94-2.9.48-5.93.37-8.86.55-2.43-.29-4.74-1.18-7.04-1.98l3.76-.39c2.36.24,4.98.3,7.35.09,17.42-1.54,33.6-14.93,44.7-27.47,4.97-5.62,9.35-11.75,14.21-17.48,3-3.96,5.82-8.03,8.61-12.14Z"/>
  <path class="cls-15" d="M417.93,127.72c-.43-3.14-1.07-6.36-.82-9.53.65,1.77,1.21,3.58,2.28,5.14l.8.37c.79,2.88.48,6.3.49,9.27.26,9.76-1.4,18.58-3.47,28.07-.75,3.42-2,7.26-2.23,10.72l-.52.1.02-1.14-.92.02.58-.21-.12.58c-.4,2.04-1.29,7.03-.34,8.87.66,3.98.95,7.97,1.24,11.99-1.02-1.68-2.02-2.12-3.16-3.69-.51-5.63-1.16-11.28-.64-16.93.54-5.8,2.38-11.61,3.69-17.26,1.38-5.96,2.22-11.89,2.71-17.98.58-2.86.29-5.57-.42-8.37l.8-.03Z"/>
  <path class="cls-9" d="M417.93,127.72c-.43-3.14-1.07-6.36-.82-9.53.65,1.77,1.21,3.58,2.28,5.14l.8.37c.79,2.88.48,6.3.49,9.27-1.28,3.47-.22,9.13-2.2,11.84l-.74-.49.29.64c.41-4.87,2.07-12.44.06-16.9-.05-.12-.11-.24-.17-.36Z"/>
  <path class="cls-6" d="M411.77,188.29c1.14,1.57,2.14,2.02,3.16,3.69.03,17.72-7.55,37.54-17.43,52.06l-.31-2.28-1.46-.57c9.97-17.1,16.55-32.97,16.05-52.9Z"/>
  <path class="cls-16" d="M296.61,228.47c-2.07-1.69-3.74-1.25-4.81-2.44.29-1.54.27-1.6,1.48-2.57.78-.13,1.58-.21,2.36-.08,4.65.75,9.02,4.11,13.33,5.92,10.04,4.23,22.15,6.99,32.99,7.62,5.66.33,11.59.12,17.15-1.08,3.56-.77,10.82-4.87,13.64-4.58-.22,1.59-1.4,2.48-2.61,3.39-.66.5-1.33.98-2.01,1.46-1.65,1.7-3.66,3.43-5.05,5.33-.85,3.71-4.11,5.38-5.83,8.55-1.4,2.58-1.74,5.85-3.51,8.2-3.45,4.57-9.42,7.77-15.04,8.52-7.64,1.03-15.64-2.43-21.55-7.07-6.03-4.73-13.28-14.05-14.25-21.82-1.08-1.13-2.01-2.46-2.97-3.69l-3.32-5.66Z"/>
  <path class="cls-10" d="M302.89,237.82c7.78,9.75,17.15,19.58,30.25,21.19,7.15.88,13.59-1.56,19.16-5.99,4.18-3.32,6.83-8.11,10.77-11.58-.85,3.71-4.11,5.38-5.83,8.55-1.4,2.58-1.74,5.85-3.51,8.2-3.45,4.57-9.42,7.77-15.04,8.52-7.64,1.03-15.64-2.43-21.55-7.07-6.03-4.73-13.28-14.05-14.25-21.82Z"/>
  <path class="cls-9" d="M296.61,228.47c-2.07-1.69-3.74-1.25-4.81-2.44.29-1.54.27-1.6,1.48-2.57.78-.13,1.58-.21,2.36-.08,4.65.75,9.02,4.11,13.33,5.92,10.04,4.23,22.15,6.99,32.99,7.62,5.66.33,11.59.12,17.15-1.08,3.56-.77,10.82-4.87,13.64-4.58-.22,1.59-1.4,2.48-2.61,3.39-.66.5-1.33.98-2.01,1.46-4.35.43-6.99,1.86-10.37,4.58-14.52,1.47-26.56.21-40.35-4.75-4.23-1.52-8.39-3.69-12.73-4.85l-.41-.11.03.38c-1,1.49-1.42,2.18-3.27,2.58-.36.08-.73.13-1.09.18l-3.32-5.66Z"/>
  <path class="cls-14" d="M296.61,228.47l1.25-1.56c2.44.01,4.63,2.54,6.4,4.07l.03.38c-1,1.49-1.42,2.18-3.27,2.58-.36.08-.73.13-1.09.18l-3.32-5.66Z"/>
  <path class="cls-8" d="M304.26,230.99l.41.11c4.33,1.16,8.49,3.33,12.73,4.85,13.79,4.96,25.83,6.22,40.35,4.75-6.15,5.03-12.21,7.64-20.26,7.5-13.67-.24-24.05-7.44-33.2-16.83l-.03-.38Z"/>
  <path class="cls-8" d="M279.15,160.35c-2.29.03-4.53.21-6.69-.67l-.72-.81c1.43-3.19,19.05-13.97,22.71-15.39,6.89-2.67,15.03-3.81,21.95-.67,3.68,1.67,6.58,6.06,7.93,9.74.76,2.08,1.38,5.11.44,7.22-.35.78-.98,1.23-1.67,1.68-.81,1.24-.91,2.3-1.08,3.73l-.55-.37c-.13,2.07-.21,4.12-.19,6.19-2.22,4.09-4.59,6.83-9.19,8.22-3.27.99-8.01.74-11.06-.87-.34-.18-.42-.26-.76-.49-3.1-.3-6.34-1.19-9.15-2.56-6.39-3.12-9.78-8.42-11.96-14.98Z"/>
  <path class="cls-16" d="M300.26,177.89c-1.43-2.15-2.41-4.41-2.7-6.99-.46-4.14.95-8.19,3.56-11.4,2.55-3.13,6.28-5.53,10.35-5.91,2.37-.22,4.8.41,6.61,1.98,2.79,2.42,3.19,5.79,3.37,9.26-.13,2.07-.21,4.12-.19,6.19-2.22,4.09-4.59,6.83-9.19,8.22-3.27.99-8.01.74-11.06-.87-.34-.18-.42-.26-.76-.49Z"/>
  <path class="cls-16" d="M279.15,160.35c-2.29.03-4.53.21-6.69-.67l-.72-.81c1.43-3.19,19.05-13.97,22.71-15.39,6.89-2.67,15.03-3.81,21.95-.67,3.68,1.67,6.58,6.06,7.93,9.74.76,2.08,1.38,5.11.44,7.22-.35.78-.98,1.23-1.67,1.68-.67-3.39-1.98-6.93-4.31-9.55-2.53-2.85-5.89-4.25-9.66-4.46-11.02-.6-22.07,5.83-29.98,12.89Z"/>
  <path class="cls-8" d="M368.46,166.25l-1.12-.6c-.51-2.13.63-4.37,1.73-6.15,3.47-5.63,9.04-9.98,15.53-11.51,4.47-1.06,9.32-.44,13.24,2.03,7.41,4.66,5.44,11.13,10.35,15.37-.62,1.32-1.72,1.88-3.08,2.41-.65.25-1.37.35-2.06.45-.33,2.22-.84,5.11-2.67,6.53l-.4-.26c-1.79,3.69-3.67,6.09-7.68,7.46-2.45.84-7.12,1.05-9.48-.09-.46-.22-.85-.49-1.28-.75-.17-.1-.34-.18-.51-.27l-.3-.17c-.27,0-.55.01-.82,0-2.98-.09-6.3-1.09-8.39-3.32-2.93-3.14-3.16-7.05-3.08-11.12Z"/>
  <path class="cls-16" d="M380.74,180.68c-1.51-2.37-2.35-4.57-2-7.38.55-4.51,3.23-8.6,6.82-11.33,2.41-1.83,5.54-3.12,8.6-2.59,1.81.31,3.35,1.29,4.41,2.78,2.54,3.57,2.03,8.27,1.43,12.34-1.79,3.69-3.67,6.09-7.68,7.46-2.45.84-7.12,1.05-9.48-.09-.46-.22-.85-.49-1.28-.75-.17-.1-.34-.18-.51-.27l-.3-.17Z"/>
  <path class="cls-16" d="M368.46,166.25l-1.12-.6c-.51-2.13.63-4.37,1.73-6.15,3.47-5.63,9.04-9.98,15.53-11.51,4.47-1.06,9.32-.44,13.24,2.03,7.41,4.66,5.44,11.13,10.35,15.37-.62,1.32-1.72,1.88-3.08,2.41-.65.25-1.37.35-2.06.45-1.53-5.43-2.92-10.58-8.18-13.63-3.38-1.96-7.33-2.25-11.06-1.25-6.62,1.78-11.98,7.11-15.36,12.89Z"/>
  <path class="cls-16" d="M315.83,103.71c5.15.12,9.99.6,14.71,2.85,3.02,1.44,7.31,4.19,8.3,7.6.46,1.58.12,3.04-.62,4.46-.3.57-.57,1.23-1.26,1.42-1.73.49-11.34-3.46-13.9-3.97-11.1-2.24-23-.08-33.62,3.24-7.57,2.37-14.14,6.04-21.31,9.32,1.24-2.03,2.63-3.88,4.23-5.65,10.94-12.08,27.44-18.5,43.46-19.26Z"/>
  <path class="cls-13" d="M369.31,209.06c.98-2.7.15-4.39-.98-6.85-2.07-4.49-4.63-8.79-6.37-13.42-4.73-12.56-3.95-27.11.62-39.6,1.63-4.45,3.74-8.5,6.38-12.42-6.2,17.28-11.25,35.5-2.97,53.12,2.82,6.01,8.52,13.5,6.16,20.43-1.64,4.82-6.6,7.52-10.93,9.54-2.64,1.23-5.17,2.02-8,2.67-2.09.26-4.71-.06-6.77-.57-4.7-1.16-7.8-4.9-10.2-8.84,11.38-.16,22.02-1.23,33.07-4.06Z"/>
  <path class="cls-10" d="M336.24,213.12c11.38-.16,22.02-1.23,33.07-4.06-4.46,7.84-14.57,7.47-17.74,12.31.62.74.74.83,1.64,1.15-2.09.26-4.71-.06-6.77-.57-4.7-1.16-7.8-4.9-10.2-8.84Z"/>
  <path class="cls-13" d="M306.16,133.47c3.36.01,6.39.33,9.54,1.58,4.11,1.63,5.76,3.72,7.52,7.69l-.51.18c-1.68-1.49-3.34-3.17-5.15-4.48-4.33-3.15-12.13-2.54-17.15-1.72-5.69,1.09-9.82,5.04-14.89,7.52.35-.56.72-1.09,1.16-1.57,5.63-6.19,11.22-8.63,19.49-9.19Z"/>
  <path class="cls-5" d="M320.17,267.04c5.22,2.01,9.21,5.22,15.21,4.4,2.18-.3,4.25-1.08,6.47-1.09l-.15.88c-.56.37-1.13.73-1.72,1.05-3.58,1.95-8.13,2.84-12.09,1.65-3.76-1.14-5.87-3.54-7.72-6.89Z"/>
  <path class="cls-13" d="M387.84,140.51c.23-.01.47-.02.7-.02,6.08-.03,9.66,2.07,13.85,6.24l-7.58-2.76c-5.59-1.71-11.41-.51-17.04.33,3.31-1.51,6.48-3.04,10.07-3.79Z"/>
  <path class="cls-5" d="M192.97,76.36c15.24-30.38,41.99-53.41,74.29-63.98,31.9-10.57,69.59-7.72,99.57,7.41,26.07,13.16,45.87,34.39,55.01,62.39,8.83,27.04,7.93,61.02-5.15,86.55-.53,1.04-1.07,2.06-1.72,3.04.23-3.46,1.48-7.3,2.23-10.72,2.07-9.49,3.73-18.32,3.47-28.07-.01-2.98.3-6.39-.49-9.27l-.8-.37c-1.08-1.56-1.64-3.37-2.28-5.14-.94-6.85-4.29-13.37-8.16-19.01-9.6-13.98-25.5-23.41-42.09-26.42-25.77-4.67-57,5.91-78.06,20.47l-.34.44c-3.99,5.05-9.4,9-13.59,13.99-23.93,28.49-39.48,56.8-35.42,95.16,3.23,30.59,21.16,57.65,44.81,76.65,11.46,9.2,22.47,14.78,36.61,18.72l-3.76.39c2.31.79,4.61,1.69,7.04,1.98-3.51,1.89-25.65.31-30.43-.32-5.22-.7-10.31-1.7-15.35-3.21-.45-.11-.89-.22-1.34-.37-31.01-10.09-64.54-38.8-79.41-67.81l.65.43-.49.06.2-.33c3.71,3.91,5.39,11.14,10.07,13.34l.55-.3c-3.96-6-8.46-10.85-10.6-17.99,7.5,12.84,15.51,23.91,26.24,34.27,20.77,20.05,48.77,39.14,78.78,38.64-31.93-10.63-53.47-36.41-70.76-63.91-2,4.61,9.82,25.38,10.26,31.64l-.94.17c-3.61-1.69-8.38-6.62-11.37-9.42-27.33-25.62-41.17-70.03-43.37-106.73-.64-10.66,0-21.35.81-31.99.87-11.44,5.78-30.06,5.36-39.76l-.03-.62Z"/>
  <path class="cls-14" d="M229.01,188.13c2.6-7.88,4.71-15.89,7.55-23.7,9.82-27.44,24.86-52.72,44.28-74.44,16.77-18.7,40.56-38.22,66.75-39.57,15.94-.82,32.28,3.11,44.32,13.99,16.18,14.61,27.13,37.53,28.28,59.3l-.8-.37c-1.08-1.56-1.64-3.37-2.28-5.14-.94-6.85-4.29-13.37-8.16-19.01-9.6-13.98-25.5-23.41-42.09-26.42-25.77-4.67-57,5.91-78.06,20.47l-.34.44c-3.99,5.05-9.4,9-13.59,13.99-23.93,28.49-39.48,56.8-35.42,95.16,3.23,30.59,21.16,57.65,44.81,76.65,11.46,9.2,22.47,14.78,36.61,18.72l-3.76.39c2.31.79,4.61,1.69,7.04,1.98-3.51,1.89-25.65.31-30.43-.32-5.22-.7-10.31-1.7-15.35-3.21-.45-.11-.89-.22-1.34-.37-31.01-10.09-64.54-38.8-79.41-67.81l.65.43-.49.06.2-.33c3.71,3.91,5.39,11.14,10.07,13.34l.55-.3c-3.96-6-8.46-10.85-10.6-17.99,7.5,12.84,15.51,23.91,26.24,34.27,20.77,20.05,48.77,39.14,78.78,38.64-31.93-10.63-53.47-36.41-70.76-63.91-1.35-5.59-7.3-15.03-9.63-21.31-8.67-22.9-13.72-47.01-14.95-71.47l.71-3.14c5.92,32.11,9.51,64.45,26.8,93.12-3.04-9.32-5.45-19.01-7.34-28.63-.84-4.28-.98-9.8-2.4-13.83-4.14-40.74.5-83.38,20.22-119.71,1.45-2.67,2.48-5.54,4.18-8.08.12.14.35.25.37.44.1.71-3.45,7.75-3.92,8.9-4.08,10.05-7.88,20.64-10.87,31.07-7.77,27.13-11.2,59.75-6.4,87.71Z"/>
  <path class="cls-10" d="M288.79,93.23l-.34.44c-3.99,5.05-9.4,9-13.59,13.99-23.93,28.49-39.48,56.8-35.42,95.16,3.23,30.59,21.16,57.65,44.81,76.65,11.46,9.2,22.47,14.78,36.61,18.72l-3.76.39c-5.79-2.17-11.66-3.74-17.4-6.2-20.95-9.11-38.8-24.11-51.39-43.17-9.14-13.6-20-41.44-16.75-57.82,6.65-33.44,28.2-78.9,57.23-98.18Z"/>
  <path class="cls-6" d="M346.42,54.02c9.87-1.89,23.42,1.21,32.36,5.51,16.24,7.82,28.22,24.03,34.04,40.76-3.45-5.43-7.69-10.32-12.6-14.48-14.05-11.93-32.5-18.44-50.92-16.89-19.08,1.45-38.54,8.52-55.07,17.94-5.37,3.06-10.4,6.64-15.73,9.77.32-.41.64-.82.98-1.22,16.33-19.56,40.72-39.11,66.95-41.39Z"/>
  <path class="cls-15" d="M220.71,61.41c-1.06,9.05-3.13,17.94-4.53,26.94-4.16,26.62-6.28,56.5,1.76,82.52,1.63,5.28,3.27,11.69,6.74,16.06.24.3.49.59.74.87,1.42,4.04,1.55,9.56,2.4,13.83,1.89,9.62,4.3,19.31,7.34,28.63-17.29-28.67-20.88-61.01-26.8-93.12l-.71,3.14c-3.73-17.34,3.37-63.57,12.87-78.61l.17-.26Z"/>
  <path class="cls-15" d="M386.95,295.46c2.19,2.08,4.53,4.03,6.79,6.02-2.24,8.43-3.98,18.59-8.14,26.28-1.94,3.59-5.55,6.22-8.07,9.42-7.5,9.54-9.04,21.64-8.37,33.39l-.28.53c1.77,12.21,6.07,20.73,13.25,30.64-1.78,7.38-5.04,12.15-11.65,16.16-1.53.93-3.18,1.69-4.8,2.44-7.3,2.74-14.67,4.14-22.31,5.57-1.7-4.4-2.6-8.89-3.23-13.55-.06-1.09-.44-2.54-1.25-3.3-.81-.75-1.2-.64-2.24-.64-2.91,1.28-4.12,3.4-5.55,6.09-4.03-2.45-8.15-4.5-12.63-6-5.89-.94-10.7-.54-15.64,3.03-.2.15-.41.3-.61.45-4.48,1.64-8.85,2.79-10.94,7.44-1.15,2.55-.56,5.16-1.49,7.71l.25,1.94c-3.24,2.33-10.81.93-14.77,1.06-9.62-.95-20.33-2.24-29.06-6.7-12.01-6.14-14.42-19.19-18.16-30.95-4.89-2.35-10.4-4.18-14.95-7.13-4.88-3.15-9.29-8.17-14.64-10.37,3.99,14.04,7.08,27.29,8.59,41.83.3,12.13,1.15,33.5-4,44.31-.67-2.84-.59-5.95-.72-8.86,2.13-23.21,2.32-43.05-3.91-65.69-1.07-7.7-6.08-22.76-11.43-28.38-12.59-13.23-29.2-26.37-48.14-26.92-8.63.59-14.74,4.18-20.37,10.67-2.78,3.21-5.06,6.67-7.14,10.37-5.61,6.39-7.35,16.12-10.33,23.84l-1.12,5.35-1.05-.44c-.18-.44-.34-.9-.41-1.38-.38-2.64.13-6.03.29-8.71.96-15.93,6.41-27.52,15.43-40.46,5.64-6.68,12.19-12.8,19.83-17.15,7.66-4.36,18.18-5.35,26.71-3.04-.52.78-.45.79-1.39.98-2.3.47-4.85.05-7.03.66-3.43.95-11.32,7.55-13.18,10.59-.22.36-.27.67-.35,1.08l.63.9c7.81,1.33,14.73,1.84,22.15,5.07,13.38,5.82,24.34,16.69,35.32,26.04,5.89,5.01,11.83,10.27,18.21,14.64,24.83,16.98,56.86,27.84,86.98,27.27,12.67-.24,28.22-1.77,38.91-9.31,9.09-6.41,14.78-15.66,19.32-25.61.84-1.85,2.25-4.24,2.69-6.18.1-.43.08-.86.07-1.29.91-2.24,2.9-4.73,4.15-6.89,3-5.19,5.62-10.3,7.88-15.85,6.26-10.97,10.55-24.41,11.86-36.95Z"/>
  <path class="cls-17" d="M229.09,386.14c17.51,9.32,36.93,15.94,56.7,17.84,25.29,2.43,47.87-2.33,67.64-18.56,5.3-4.35,9.72-9.68,15.02-13.98l.43-.35c1.77,12.21,6.07,20.73,13.25,30.64-1.78,7.38-5.04,12.15-11.65,16.16-1.53.93-3.18,1.69-4.8,2.44-7.3,2.74-14.67,4.14-22.31,5.57-1.7-4.4-2.6-8.89-3.23-13.55-.06-1.09-.44-2.54-1.25-3.3-.81-.75-1.2-.64-2.24-.64-2.91,1.28-4.12,3.4-5.55,6.09-4.03-2.45-8.15-4.5-12.63-6-5.89-.94-10.7-.54-15.64,3.03-.2.15-.41.3-.61.45-4.48,1.64-8.85,2.79-10.94,7.44-1.15,2.55-.56,5.16-1.49,7.71l-2.57-.13c-12.9-.29-27.42-.33-39.26-6.22-10.45-5.2-12.45-16.27-15.76-26.44-.86-2.77-2.06-5.49-3.12-8.2Z"/>
  <path class="cls-1" d="M232.21,394.34c6.94,1.03,11.99,6.14,18.2,8.78,12.41,5.28,26.38,7.66,39.72,8.95.89.18,1.7.41,2.6.2l.54.5c-.47.72-.86,1.07-1.53,1.61-2.42,1.94-2.09,4.79-3.16,7.43-.45,1.11-.19,2.42-.05,3.58-.42.85-.48,1.1-1.31,1.61-12.9-.29-27.42-.33-39.26-6.22-10.45-5.2-12.45-16.27-15.76-26.44Z"/>
  <path class="cls-1" d="M352.96,392.52c8.18,8.12,8.02,18.1,12.73,27.82-7.3,2.74-14.67,4.14-22.31,5.57-1.7-4.4-2.6-8.89-3.23-13.55-.06-1.09-.44-2.54-1.25-3.3-.81-.75-1.2-.64-2.24-.64-2.91,1.28-4.12,3.4-5.55,6.09-4.03-2.45-8.15-4.5-12.63-6,13.25-5.03,22.28-8.25,34.48-15.99Z"/>
  <path class="cls-14" d="M101.02,376.17c.06-10.1,5.13-21.58,10.63-29.93,5.2-7.91,12.55-15.39,22.13-17.32,23.45-4.7,39.45,13.37,55.24,27.24,6.19,5.43,12.98,10.34,19.83,14.92,39.37,26.35,99.47,46.22,141.04,13.58,3.36-2.64,18.44-17.68,18.77-17.74l.5,3.66-.28.53-.43.35c-5.3,4.3-9.72,9.63-15.02,13.98-19.77,16.23-42.35,20.99-67.64,18.56-19.77-1.9-39.19-8.52-56.7-17.84,1.06,2.71,2.26,5.42,3.12,8.2,3.31,10.17,5.31,21.24,15.76,26.44,11.83,5.89,26.36,5.93,39.26,6.22l2.57.13.25,1.94c-3.24,2.33-10.81.93-14.77,1.06-9.62-.95-20.33-2.24-29.06-6.7-12.01-6.14-14.42-19.19-18.16-30.95-4.89-2.35-10.4-4.18-14.95-7.13-4.88-3.15-9.29-8.17-14.64-10.37,3.99,14.04,7.08,27.29,8.59,41.83.3,12.13,1.15,33.5-4,44.31-.67-2.84-.59-5.95-.72-8.86,2.13-23.21,2.32-43.05-3.91-65.69-1.07-7.7-6.08-22.76-11.43-28.38-12.59-13.23-29.2-26.37-48.14-26.92-8.63.59-14.74,4.18-20.37,10.67-2.78,3.21-5.06,6.67-7.14,10.37-5.61,6.39-7.35,16.12-10.33,23.84Z"/>
  <path class="cls-6" d="M195.26,364.97c9.86,6.5,19.66,13.01,29.81,19.07l2.99,8.45c-4.89-2.35-10.4-4.18-14.95-7.13-4.88-3.15-9.29-8.17-14.64-10.37-1.18-3.31-2.25-6.65-3.21-10.02Z"/>
  <path class="cls-14" d="M125.09,316.77c-2.16-9.02-1.63-17.32.53-26.28,2.71-11.27,7.98-21.02,12.43-31.61,5.2-12.35,9.67-24.99,13.37-37.87,9.98-35.32,13.46-72.12,23.73-107.35,12.03-41.3,31.16-74.26,69.97-95.45,31.24-17.05,69.38-19.67,103.35-9.56,28.41,8.46,54.51,28.33,68.59,54.59,15.21,28.37,17.82,64.44,7.22,94.83-1.06,3.03-2.14,6.05-3.67,8.88-2.13,3.93-5.63,8.48-6.83,12.72-.03.11-.06.21-.08.32-.95-1.84-.06-6.83.34-8.87l.12-.58-.58.21.92-.02-.02,1.14.52-.1c.65-.98,1.18-2,1.72-3.04,13.08-25.54,13.98-59.51,5.15-86.55-9.15-28-28.95-49.23-55.01-62.39-29.98-15.13-67.67-17.98-99.57-7.41-32.3,10.57-59.05,33.6-74.29,63.98-23.23,42.46-25.51,101.74-39.3,148.7-3.67,12.51-8.44,24.81-13.57,36.79-4.29,10.01-8.98,19.41-11.76,29.99-2.06,7.82-2.35,14.81-1.5,22.83,3.21-2,6.59-4.44,10.11-5.84,8.69-3.46,20.62-2.59,29.56-.54,9.36,2.14,19.22,7.28,27.36,12.28-3.63.26-15.87-7.78-19.94-9.38-12.57-4.95-33.4-6.24-44.08,3.09,1.38.22,9.37-4.24,11.44-4.95,9.46-3.25,28.83,1.67,37.58,6.06,1.36.69,13.52,7.58,13.88,7.92-4.47-.38-20.9-11.94-32.03-12.96-8.53-2.31-19.04-1.32-26.71,3.04-7.64,4.35-14.2,10.47-19.83,17.15-9.02,12.95-14.48,24.53-15.43,40.46-.16,2.68-.67,6.07-.29,8.71.07.47.23.94.41,1.38l1.05.44-1.42,8.42c-1.32-2.91-1.88-6.15-2.16-9.31-1.67-18.74,4.29-37.37,16.53-51.65,3.76-4.55,7.66-8.47,12.24-12.21Z"/>
  <path class="cls-15" d="M372.25,275.33c5.77-6.18,10.81-12.88,16.4-19.2-.26,11.83-.72,23.66-1.37,35.48,2.59,2.06,5.19,4.07,7.48,6.48-.34,1.12-.76,2.26-1.02,3.41-2.27-1.99-4.6-3.94-6.79-6.02-1.31,12.54-5.6,25.98-11.86,36.95l-2.66-.74c7.83-17.72,11.84-33.31,12.35-52.75.81-4.56.56-9.42.59-14.05-4.23,4.96-8.28,10.13-12.6,15l-.69.67c-20.31,25.18-46.36,52.78-80.33,56.52-12.17,1.34-28.29-.25-38.31-7.88,24.46,6.57,43.61,7.82,66.36-5.31,5.75-3.32,13.19-7.83,17.55-12.88-4.61.31-9.38.85-13.98.45-9.82-.86-38.13-7.64-44.92-13.35l-.09-1.07c5.04,1.51,10.14,2.52,15.35,3.21,4.78.64,26.92,2.21,30.43.32,2.94-.19,5.97-.07,8.86-.55,11.08-1.85,21.86-8.52,30.11-15.94,3.14-2.82,5.92-6,9.14-8.74Z"/>
  <path class="cls-14" d="M372.25,275.33c5.77-6.18,10.81-12.88,16.4-19.2-.26,11.83-.72,23.66-1.37,35.48,2.59,2.06,5.19,4.07,7.48,6.48-.34,1.12-.76,2.26-1.02,3.41-2.27-1.99-4.6-3.94-6.79-6.02-1.31,12.54-5.6,25.98-11.86,36.95l-2.66-.74c7.83-17.72,11.84-33.31,12.35-52.75.81-4.56.56-9.42.59-14.05-4.23,4.96-8.28,10.13-12.6,15l-.69.67-.15-1.27c4.11-4.46,7.76-10.42,12.76-13.9l.91.2c1.07,3.18.57,7.46.58,10.82,1.71-3.3.39-11.83.59-15.82l.03-.5c-.69-.27-.61.15-1.01.65-2.35,2.98-9.83,13.41-12.95,14.43-.19.06-.38.11-.57.16Z"/>
  <path class="cls-15" d="M385.37,264.87c-.03,4.63.22,9.49-.59,14.05-.09-3.97-.1-7.93-.03-11.9-9.07,10.84-10,23.71-15.71,36.12-12.05,26.22-43.65,56.41-73.59,58.96-1.12.1-2.25.13-3.38.08,31.23-9.78,57.25-31.65,72.26-60.73,2.06-4.05,9.42-17.6,8.43-21.58,4.32-4.87,8.37-10.04,12.6-15Z"/>
  <path class="cls-2" d="M372.43,331.67l2.66.74c-2.26,5.55-4.88,10.67-7.88,15.85-1.25,2.16-3.24,4.65-4.15,6.89-9.4,10.94-18.18,20.76-32.07,25.82l.15-.49c18.96-8.6,32.7-30.77,41.29-48.81Z"/>
  <path class="cls-1" d="M138.87,331.29c18.94.55,35.55,13.69,48.14,26.92,5.35,5.62,10.36,20.68,11.43,28.38,6.23,22.64,6.04,42.48,3.91,65.69.13,2.91.05,6.02.72,8.86,5.15-10.81,4.3-32.18,4-44.31-1.51-14.54-4.6-27.79-8.59-41.83,5.35,2.2,9.76,7.22,14.64,10.37,4.56,2.94,10.06,4.78,14.95,7.13,3.74,11.76,6.15,24.81,18.16,30.95,8.72,4.46,19.44,5.75,29.06,6.7,3.96-.13,11.53,1.27,14.77-1.06.77,1.44,1.54,3.36,2.62,4.56,6.82,9.14,17,26.04,28.18,29.36.07.08.16.16.22.25.31.44.33.65.45,1.14.75,3.17,3.05,6.84,4.63,9.69,6.1,10.99,13.16,21.47,24.16,28.06,5.25,3.15,11.61,3.18,15.02,5.11l3.62-.03-14.75,22.36c8.83.5,17.04,1.61,25.59,3.84,6.97,3.02,13.24,5.61,18.12,11.73-18.49-9.26-31.82-12.39-52.59-11.83,9.36,9.76,13.39,21.52,13.06,34.95-.11,4.45-.58,10.6-2.36,14.68-1.48,3.74-.23,5.8-.43,9.47-1.52.8-3.04,1.59-4.54,2.45-4.52,10.22-6.72,21.46-5.74,32.64.14,1.54.19,4.17.94,5.5.1.17.25.3.38.45.33,1.24.29,2.1,1.45,2.8,2.25,1.35,5.39.78,6.69,3.58-.24,1.72-2.03,3.22-3.41,4.18-1.14.8-2.79.83-4.14.68l-2.3-.27c-.28.13-.56.27-.85.38-6.4,2.47-26.41-.46-34.39-.64-7.52-.17-28.4,1.24-34.23-1.35-6.18,1.46-36.52-3.83-43.19-6.51-4.07.55-37.6-8.4-40.99-10.82-.2-.15-.45-.42-.61-.59-12.73,66.28-18.51,133.72-17.23,201.19-.68.24-1.28.37-2.01.37-1.87,0-3.84-.7-5.15-2.04-.62.21-1.25.37-1.91.32-4.96-.39-37.33-8.97-39.98-11.91-.07.02-.14.05-.21.06-1.23.24-1.49.28-2.54-.4-1.74-5.16,1.26-18.53,1.94-24.26,5.11-42.96,10.58-85.35,24.17-126.65,2.76-8.31,5.81-16.52,9.14-24.61,2.45-5.96,8.63-17.63,9.38-23.34-1.73-.06-3.99-2.17-5.33-3.3-8.09-6.71-14.92-14.81-20.18-23.91-21.42-36.66-38-112.59-41.85-155.02-.74-8.11-1.41-16.61-1.17-24.74.16-5.3,1.32-11.03.79-16.28l-.05-.43,1.42-8.42,1.12-5.35c2.98-7.72,4.72-17.45,10.33-23.84,2.09-3.69,4.36-7.16,7.14-10.37,5.64-6.49,11.74-10.08,20.37-10.67Z"/>
  <path class="cls-5" d="M198.47,374.99c5.35,2.2,9.76,7.22,14.64,10.37,4.56,2.94,10.06,4.78,14.95,7.13,3.74,11.76,6.15,24.81,18.16,30.95,8.72,4.46,19.44,5.75,29.06,6.7,3.96-.13,11.53,1.27,14.77-1.06.77,1.44,1.54,3.36,2.62,4.56,6.82,9.14,17,26.04,28.18,29.36.07.08.16.16.22.25.31.44.33.65.45,1.14.75,3.17,3.05,6.84,4.63,9.69,6.1,10.99,13.16,21.47,24.16,28.06,5.25,3.15,11.61,3.18,15.02,5.11-5.17,7.35-9.99,14.91-14.82,22.49-4.03.19-9.61-.08-13.19,1.97,2.3,1.39,4.42,2.75,6.42,4.58-1.96-.02-5.25-.45-6.83.7-8.24.26-15.64,2.97-21.35,9.12-5.87,6.33-10.19,16.91-9.79,25.7.02.47.06.94.13,1.41-.4.15-.58.25-1.03.29-1.52.16-2.35-.74-3.44-1.59-8.3,2.32-64.45-25.34-74.81-29.89-2.91-6.1-6.41-9.82-11.81-13.81-1.74-21.06-7.58-46.13-11.75-67.06,5.15-10.81,4.3-32.18,4-44.31-1.51-14.54-4.6-27.79-8.59-41.83Z"/>
  <path class="cls-6" d="M207.06,416.83c.08.09.17.19.25.28,3.66,4.56,2.4,48.91,5.26,60.75,2.26,9.34,6.37,17.72,12.54,25.11,9.14,10.94,20.76,16.07,34.66,17.97,23.55,3.22,48.41-1.05,70.37-9.77-3.66-10.29-8.09-19.92-12.77-29.78-1.97-4.14-3.81-8.75-6.36-12.56-2.09-3.11-5.5-5.12-7.83-8.07-7.31-9.3-12.8-19.46-18.04-30.01-3.22-.04-6.74.2-9.86-.62,3.96-.13,11.53,1.27,14.77-1.06.77,1.44,1.54,3.36,2.62,4.56,6.82,9.14,17,26.04,28.18,29.36.07.08.16.16.22.25.31.44.33.65.45,1.14.75,3.17,3.05,6.84,4.63,9.69,6.1,10.99,13.16,21.47,24.16,28.06,5.25,3.15,11.61,3.18,15.02,5.11-5.17,7.35-9.99,14.91-14.82,22.49-4.03.19-9.61-.08-13.19,1.97,2.3,1.39,4.42,2.75,6.42,4.58-1.96-.02-5.25-.45-6.83.7-8.24.26-15.64,2.97-21.35,9.12-5.87,6.33-10.19,16.91-9.79,25.7.02.47.06.94.13,1.41-.4.15-.58.25-1.03.29-1.52.16-2.35-.74-3.44-1.59-8.3,2.32-64.45-25.34-74.81-29.89-2.91-6.1-6.41-9.82-11.81-13.81-1.74-21.06-7.58-46.13-11.75-67.06,5.15-10.81,4.3-32.18,4-44.31Z"/>
  <path class="cls-13" d="M337.32,531.69c2.3,1.39,4.42,2.75,6.42,4.58-1.96-.02-5.25-.45-6.83.7-8.24.26-15.64,2.97-21.35,9.12-5.87,6.33-10.19,16.91-9.79,25.7.02.47.06.94.13,1.41-.4.15-.58.25-1.03.29-1.52.16-2.35-.74-3.44-1.59l1.03-.39c.27-2.92.42-5.95,1.08-8.82,2.55-11.19,10.55-22.01,21.35-26.25,3.89-1.53,8.59-2.24,12.09-4.51.12-.08.23-.16.35-.24Z"/>
  <path class="cls-4" d="M111.35,352.33c-4.97,12.78-8.5,25.41-9.75,39.08-4.44,48.37,14.76,132.93,34.29,177.25,11.01,24.99,24.41,40.83,50.16,50.74,33.17,12.76,71.77,20.13,107.23,21,4.28.11,11.45.98,15.28-.62.39-.16.76-.36,1.12-.58-2.52-3.13-3.26-10.05-3.36-14.05-.7-12.65,1.78-26.59,8.84-37.31,1.66-2.52,4.41-3.51,5.84-6.2.07-.14.14-.28.21-.42-19.26-4.42-37.52-9.58-55.73-17.28-11.13-4.71-33.3-16.77-43.56-18.81-11.51-2.28-28.12.78-38.8,5.56-4.08,1.82-7.81,4.5-11.52,6.97,2.04-3.92,3.95-6.61,7.61-9.2,9.26-6.53,24.64-10.65,35.88-8.55,1.98.37,3.88.76,5.91.64-.02-.17-.02-.35-.05-.52-.78-5.39-16.47-13.35-20.97-16.22-2.86-1.82-5.57-3.88-8.29-5.91.49-.3,1.13-.91,1.7-.78,4.95,1.09,11.85,8.09,16.64,7.08.74-1.4.35-2.71.12-4.21-3.34-19.37-7.65-38.57-10.99-57.95-1.43-8.3-2.14-16.71-3.39-25.04-4.3-28.56-11.83-58.39-30.92-80.9.83-.23,1.04-.13,1.8.34,3.11,1.92,6.32,7.31,8.56,10.29,14.96,19.97,20.54,43.42,24.42,67.6.96,5.95,1.45,12.03,2.7,17.93.13,2.91.05,6.02.72,8.86,4.17,20.93,10.01,46,11.75,67.06,5.4,3.99,8.9,7.72,11.81,13.81,10.36,4.55,66.51,32.21,74.81,29.89,1.09.85,1.92,1.75,3.44,1.59.45-.05.63-.14,1.03-.29-.06-.47-.1-.94-.13-1.41-.4-8.79,3.92-19.37,9.79-25.7,5.71-6.16,13.11-8.86,21.35-9.12,1.58-1.15,4.87-.72,6.83-.7-2-1.83-4.12-3.18-6.42-4.58,3.58-2.05,9.16-1.77,13.19-1.97,4.83-7.58,9.65-15.14,14.82-22.49l3.62-.03-14.75,22.36c8.83.5,17.04,1.61,25.59,3.84,6.97,3.02,13.24,5.61,18.12,11.73-18.49-9.26-31.82-12.39-52.59-11.83,9.36,9.76,13.39,21.52,13.06,34.95-.11,4.45-.58,10.6-2.36,14.68-1.48,3.74-.23,5.8-.43,9.47-1.52.8-3.04,1.59-4.54,2.45-4.52,10.22-6.72,21.46-5.74,32.64.14,1.54.19,4.17.94,5.5.1.17.25.3.38.45.33,1.24.29,2.1,1.45,2.8,2.25,1.35,5.39.78,6.69,3.58-.24,1.72-2.03,3.22-3.41,4.18-1.14.8-2.79.83-4.14.68l-2.3-.27c-.28.13-.56.27-.85.38-6.4,2.47-26.41-.46-34.39-.64-7.52-.17-28.4,1.24-34.23-1.35-6.18,1.46-36.52-3.83-43.19-6.51-4.07.55-37.6-8.4-40.99-10.82-.2-.15-.45-.42-.61-.59-12.73,66.28-18.51,133.72-17.23,201.19-.68.24-1.28.37-2.01.37-1.87,0-3.84-.7-5.15-2.04-.62.21-1.25.37-1.91.32-4.96-.39-37.33-8.97-39.98-11.91-.07.02-.14.05-.21.06-1.23.24-1.49.28-2.54-.4-1.74-5.16,1.26-18.53,1.94-24.26,5.11-42.96,10.58-85.35,24.17-126.65,2.76-8.31,5.81-16.52,9.14-24.61,2.45-5.96,8.63-17.63,9.38-23.34-1.73-.06-3.99-2.17-5.33-3.3-8.09-6.71-14.92-14.81-20.18-23.91-21.42-36.66-38-112.59-41.85-155.02-.74-8.11-1.41-16.61-1.17-24.74.16-5.3,1.32-11.03.79-16.28l-.05-.43,1.42-8.42,1.12-5.35c2.98-7.72,4.72-17.45,10.33-23.84Z"/>
  <path class="cls-7" d="M166.28,613.61l1.44,1.11-.11,1.98c.66-.46,1.25-.92,2.02-1.19-.41.29-.18.22-.72.21,3.61,2.74,13.96,8.57,18.49,8.06-4.15,21.77-8.1,43.47-10.88,65.48-4.1,34.66-6.35,69.51-6.73,104.4-.07,5.13.21,28.49-.65,30.96-1.12.25-1.75.11-2.84-.21-.62.21-1.25.37-1.91.32-4.96-.39-37.33-8.97-39.98-11.91-.07.02-.14.05-.21.06-1.23.24-1.49.28-2.54-.4-1.74-5.16,1.26-18.53,1.94-24.26,5.11-42.96,10.58-85.35,24.17-126.65,2.76-8.31,5.81-16.52,9.14-24.61,2.45-5.96,8.63-17.63,9.38-23.34Z"/>
  <path class="cls-4" d="M166.28,613.61l1.44,1.11-.11,1.98c.66-.46,1.25-.92,2.02-1.19-.41.29-.18.22-.72.21-5.43,13.85-11.55,27.22-16.33,41.34-13.99,41.31-20.82,84.12-25.45,127.33-.76,7.07-3.93,21.93-2.73,28.42-.07.02-.14.05-.21.06-1.23.24-1.49.28-2.54-.4-1.74-5.16,1.26-18.53,1.94-24.26,5.11-42.96,10.58-85.35,24.17-126.65,2.76-8.31,5.81-16.52,9.14-24.61,2.45-5.96,8.63-17.63,9.38-23.34Z"/>
  <path class="cls-12" d="M336.9,536.97c2.73-.01,4.84-.3,6.94,1.72,5.31,5.08,8.32,15.67,8.36,22.79.02,3.92-.8,12.3-3.53,15.3-1.2,1.58-4.11,3.77-6.15,3.95-.39.04-.43,0-.76-.09-.5.18-1.04.35-1.58.38-3.69.19-31.99-5.74-34.29-7.81-.06-.47-.1-.94-.13-1.41-.4-8.79,3.92-19.37,9.79-25.7,5.71-6.16,13.11-8.86,21.35-9.12Z"/>
  <path class="cls-1" d="M321.22,581.22c5.63,1.08,26.62,3.85,29.64,6.86.6,3.54-4.98,9.64-6.32,13.35-1.81,5.01-2.47,10.3-2.92,15.58-.54,2.86-.56,5.56-.52,8.45-4.02,2.68-23.24,2.32-28.54,1.11-1.05-.24-1.57-.52-2.28-1.32-1.11-11.94,1.28-22.68,6.14-33.56,1.5-3.35,3.58-6.59,4.69-10.09.04-.13.08-.26.12-.39Z"/>
  <path class="cls-17" d="M341.62,617.01c-.03,5.7-1.27,16.72,2.85,21.14.99,1.06,2.8,1.45,4.15,1.84-.75.92-1.36,1.05-2.52,1.2-5.56.71-27.85,1.23-31.94-1.93-3.39-2.62-3.56-7.22-3.87-11.13-.08-.97-.08-1.91-.01-2.87.71.8,1.23,1.08,2.28,1.32,5.31,1.21,24.53,1.57,28.54-1.11-.04-2.9-.02-5.59.52-8.45Z"/>
  <path class="cls-10" d="M343.74,536.27c8.55,10.48,12.47,22.64,11.11,36.15-.33,3.23-.74,7.46-1.92,10.48-2.59.81-7.81-.18-10.22-1.46-.43-.23-.63-.45-.95-.81.32.09.37.12.76.09,2.04-.18,4.95-2.37,6.15-3.95,2.72-3,3.55-11.38,3.53-15.3-.04-7.12-3.04-17.7-8.36-22.79-2.11-2.02-4.21-1.73-6.94-1.72,1.58-1.15,4.87-.72,6.83-.7Z"/>
  <path class="cls-17" d="M138.87,331.29c18.94.55,35.55,13.69,48.14,26.92,5.35,5.62,10.36,20.68,11.43,28.38-2.75-3.58-3.14-8.03-5.15-11.91-1.24-2.4-3.72-4.84-4.42-7.39,1.28.36,2.9,2.89,3.78,3.98-1.33-3.89-2.69-8.54-5.47-11.66-9.25-10.37-22.81-17.88-35.55-22.94-2.6-1.03-5.36-2.42-8.17-2.59-.14.09-.28.18-.42.27-1.95,1.15-6.06,1.34-8.48,2.16-9.55,3.23-14.29,14.56-17.07,23.54-13.28,42.96,1.26,102.73,13.32,144.95,6.34,22.19,13.08,44.45,23.94,64.93,10.38,19.57,22.81,27.12,43.29,34.58,7.47,2.72,15.02,5.37,22.62,7.69,23.38,7.02,47.41,11.61,71.73,13.71,3.73.31,9.43,1.28,13.01.15l.94-.91c.1,4,.83,10.92,3.36,14.05-.36.22-.73.42-1.12.58-3.83,1.59-11,.72-15.28.62-35.46-.87-74.06-8.24-107.23-21-25.75-9.91-39.15-25.75-50.16-50.74-19.53-44.32-38.73-128.88-34.29-177.25,1.25-13.67,4.79-26.31,9.75-39.08,2.09-3.69,4.36-7.16,7.14-10.37,5.64-6.49,11.74-10.08,20.37-10.67Z"/>
  <path class="cls-17" d="M178.45,504.86c11.01,3.67,20.22,12.66,31.71,15.14.23,1.5.62,2.81-.12,4.21-4.79,1.01-11.69-5.99-16.64-7.08-.57-.12-1.21.48-1.7.78-5.22-3.66-8.76-8.65-13.26-13.05Z"/>
  <path class="cls-3" d="M382.14,401.73l2.9,2.9c5.5,5.05,11.02,10.11,16.92,14.71l3.62,2.24c6.46,3.58,14.53,7.94,22.16,5.71,1.56-.46,3.09-1.03,4.61-1.6,12.5-3.73,23.67-5.05,36.57-3.11,2.98.65,6.17,1.13,9.07,2.11l5.16,1.61c13.27,10.02,10.79,21.04,15.7,33.53v6.97s.34,3.17.34,3.17l-.38,1.5-.89.05-2.75-2.44c-6.77-5.26-18.72-16.98-27.67-16-1.4.15-2.39.55-3.49,1.42-1.04,1.49-1.17,2.76-.87,4.5.64,3.8,5.72,11.24,5.8,12.13,0,.02-.27.52-.32.58-2.44,3.6-4.33,4.27-3.68,9.26.77,5.9,6.73,9.43,7.18,12.53-1.46.15-2.73.04-3.78,1.27-1.71,2-1.68,4.92-1.37,7.36-.91,21.77,21.13,27.39,11.34,51-2.48,5.97-6.02,11.37-10.81,15.75-7.84,7.18-20.43,11.24-31.09,10.58-1.53-.09-2.94-.27-4.24-1.15-.36-.87-.62-1.13-.15-2.05,1.64-3.25,6.57-6.13,9.07-8.92,2.88-3.21,9.63-14.91,8.81-19.07l-.98-.26c.88-3.03,1.58-6.21-.08-9.13-.85-1.49-2.07-2.71-3.8-3.11-2.79-.65-5.85,1.02-8.05,2.56-4.23,2.96-7.94,7.12-11.72,10.65-6.37,5.95-13.29,11.56-20.71,16.14-1.73,1.07-3.97,2.78-6.04,2.79-10.12,1.97-29.96,18.29-41.7,16.14l-.8-1.11c1.78-4.08,2.25-10.23,2.36-14.68.32-13.43-3.7-25.18-13.06-34.95,20.78-.56,34.11,2.57,52.59,11.83-4.87-6.12-11.15-8.71-18.12-11.73-8.55-2.23-16.76-3.34-25.59-3.84l14.75-22.36-3.62.03c-3.41-1.93-9.76-1.96-15.02-5.11-11-6.59-18.06-17.08-24.16-28.06-1.58-2.84-3.87-6.52-4.63-9.69-.12-.49-.14-.7-.45-1.14-.07-.09-.15-.17-.22-.25-11.18-3.32-21.37-20.21-28.18-29.36-1.07-1.2-1.85-3.12-2.62-4.56l-.25-1.94c.94-2.55.34-5.16,1.49-7.71,2.09-4.65,6.46-5.8,10.94-7.44.2-.15.4-.3.61-.45,4.94-3.57,9.75-3.97,15.64-3.03,4.48,1.5,8.6,3.55,12.63,6,1.43-2.69,2.64-4.82,5.55-6.09,1.04,0,1.43-.11,2.24.64.82.76,1.19,2.21,1.25,3.3.63,4.65,1.54,9.15,3.23,13.55,7.63-1.43,15-2.84,22.31-5.57,1.62-.75,3.27-1.52,4.8-2.44,6.62-4.02,9.88-8.78,11.65-16.16Z"/>
  <path class="cls-12" d="M382.14,401.73l2.9,2.9c5.5,5.05,11.02,10.11,16.92,14.71l3.62,2.24c1,4.72,3.03,10.89,1.57,15.58-.75.81-1.37,1.45-2.34,1.98-7.05,4.23-15.54,8.81-21.59,14.32l-.16.77c1.46.78,2.97.73,4.58.8,9.86,10.15,16.99,25.31,21.94,38.43-.05,1.41.23,2.86-1.04,3.82-.6.45-1.45.78-2.13,1.09-12.75,4.89-23.59,9.3-37.46,8.84l-3.62.03c-3.41-1.93-9.76-1.96-15.02-5.11-11-6.59-18.06-17.08-24.16-28.06-1.58-2.84-3.87-6.52-4.63-9.69-.12-.49-.14-.7-.45-1.14-.07-.09-.15-.17-.22-.25-11.18-3.32-21.37-20.21-28.18-29.36-1.07-1.2-1.85-3.12-2.62-4.56l-.25-1.94c.94-2.55.34-5.16,1.49-7.71,2.09-4.65,6.46-5.8,10.94-7.44.2-.15.4-.3.61-.45,4.94-3.57,9.75-3.97,15.64-3.03,4.48,1.5,8.6,3.55,12.63,6,1.43-2.69,2.64-4.82,5.55-6.09,1.04,0,1.43-.11,2.24.64.82.76,1.19,2.21,1.25,3.3.63,4.65,1.54,9.15,3.23,13.55,7.63-1.43,15-2.84,22.31-5.57,1.62-.75,3.27-1.52,4.8-2.44,6.62-4.02,9.88-8.78,11.65-16.16Z"/>
  <path class="cls-6" d="M382.14,401.73l2.9,2.9c5.5,5.05,11.02,10.11,16.92,14.71l3.62,2.24c1,4.72,3.03,10.89,1.57,15.58-.75.81-1.37,1.45-2.34,1.98-7.05,4.23-15.54,8.81-21.59,14.32l-.16.77c1.46.78,2.97.73,4.58.8l-2.05,2.64c-1.84.92-4.17,1.29-6.18,1.79l3.59,8.7c-6.92-9.65-11.34-9.45-21.27-14.2-4.42-4.5-12.52-7.1-17.95-10.52l1.51-.87-.52.55.58-.85c-.07-8.08-3.96-15.06-5.84-22.66-.55-2.24-.25-6.32-1.6-8.13-.51-.68-1.53-.6-2.35-.73l-.14-.4,1.35-1.01c1.74.39,1.85,1.33,2.97,2.6l.4.45c.63,4.65,1.54,9.15,3.23,13.55,7.63-1.43,15-2.84,22.31-5.57,1.62-.75,3.27-1.52,4.8-2.44,6.62-4.02,9.88-8.78,11.65-16.16Z"/>
  <path class="cls-5" d="M367.07,423.08c3.05,11.06,7.45,21.41,8.94,32.9-10.1-2.98-19.69-7.47-28.45-13.32-1.52-4.57-2.19-9.46-3.03-14.2,7.45-1.34,15.61-2.24,22.54-5.39Z"/>
  <path class="cls-14" d="M382.14,401.73l2.9,2.9c-3.62,9.34-8.85,14.27-17.97,18.44-6.93,3.14-15.09,4.05-22.54,5.39l-1.15-2.55c7.63-1.43,15-2.84,22.31-5.57,1.62-.75,3.27-1.52,4.8-2.44,6.62-4.02,9.88-8.78,11.65-16.16Z"/>
  <path class="cls-14" d="M401.96,419.34l3.62,2.24c1,4.72,3.03,10.89,1.57,15.58-.75.81-1.37,1.45-2.34,1.98-.08-6.66-1.56-13.29-2.85-19.79Z"/>
  <path class="cls-10" d="M387.63,455.02c9.86,10.15,16.99,25.31,21.94,38.43-.05,1.41.23,2.86-1.04,3.82-.6.45-1.45.78-2.13,1.09-12.75,4.89-23.59,9.3-37.46,8.84l-3.62.03c-3.41-1.93-9.76-1.96-15.02-5.11-11-6.59-18.06-17.08-24.16-28.06-1.58-2.84-3.87-6.52-4.63-9.69-.12-.49-.14-.7-.45-1.14-.07-.09-.15-.17-.22-.25l2.53-.28c1.69,3.31,3.29,6.74,5.22,9.91,2.09,1.8,3.84,4.69,5.59,6.85,6.44,7.96,14.7,16.99,25.18,19.13,13.27,2.71,33.54-1.52,44.75-8.96-4.72-10.86-9.51-24.07-18.54-31.98l2.05-2.64Z"/>
  <path class="cls-13" d="M320.85,462.99l2.53-.28c1.69,3.31,3.29,6.74,5.22,9.91,4.08,10.58,16,24.04,26.36,28.65,15,6.67,30.66,2.31,45.13-3.39,3.22-1.27,6.5-2.66,9.48-4.43-.05,1.41.23,2.86-1.04,3.82-.6.45-1.45.78-2.13,1.09-12.75,4.89-23.59,9.3-37.46,8.84l-3.62.03c-3.41-1.93-9.76-1.96-15.02-5.11-11-6.59-18.06-17.08-24.16-28.06-1.58-2.84-3.87-6.52-4.63-9.69-.12-.49-.14-.7-.45-1.14-.07-.09-.15-.17-.22-.25Z"/>
  <path class="cls-13" d="M302.23,411.99c.2-.15.4-.3.61-.45,4.94-3.57,9.75-3.97,15.64-3.03,4.48,1.5,8.6,3.55,12.63,6,1.43-2.69,2.64-4.82,5.55-6.09,1.04,0,1.43-.11,2.24.64.82.76,1.19,2.21,1.25,3.3l-.4-.45c-1.13-1.27-1.23-2.21-2.97-2.6l-1.35,1.01.14.4c.82.13,1.84.05,2.35.73,1.35,1.8,1.05,5.89,1.6,8.13,1.88,7.6,5.77,14.58,5.84,22.66l-.58.85.52-.55-1.51.87c5.43,3.42,13.54,6.02,17.95,10.52-11.44-3.61-11.64-9.39-26.04-9.84l9.02-1.58c-.76-3.72-6.73-29.03-8.34-30.97l-.84-.02c-.14.23-.35.54-.45.8-2.05,5.13,1.47,9.6,3.22,14.25-2.41-2.75-4.79-5.66-7.56-8.06-6.93-5.99-13.57-6.77-22.36-6.16,4.54,1.79,7.26,3.59,10.55,7.15-10.57-2.93-10.66-5.54-22.2-1.4,1.4.14,2.8.36,4.17.67,2.92.68,8.19,2.76,9.82,5.34-4.2,1.9-11.68-4.06-17.62-1.35l-.22.75c1.85,2.53,7.3,4.11,10.01,6.09,1.89,1.38,3.43,3.36,4.9,5.16-3.65-1.51-10.81-7.03-14.6-6.15-.27,1.76.46,2.42,1.33,3.94l-1.59-.52-.27,1.57c-1.07-1.2-1.85-3.12-2.62-4.56l-.25-1.94c.94-2.55.34-5.16,1.49-7.71,2.09-4.65,6.46-5.8,10.94-7.44Z"/>
  <path class="cls-5" d="M292.66,433.63l.27-1.57,1.59.52c6.71,5.88,11.73,16.42,17.99,21.99,2.77,2.47,6.75,4.35,9.99,6.16.61.34.82.97.87,1.66,0,.1,0,.21,0,.31l-2.53.28c-11.18-3.32-21.37-20.21-28.18-29.36Z"/>
  <path class="cls-4" d="M432.35,425.68c12.5-3.73,23.67-5.05,36.57-3.11,2.98.65,6.17,1.13,9.07,2.11l5.16,1.61c13.27,10.02,10.79,21.04,15.7,33.53v6.97s.34,3.17.34,3.17l-.38,1.5-.89.05-2.75-2.44c.06-10.91-2.32-22.83-7.97-32.24-3.43-1.06-7.38-4.15-10.74-5.85-4.49-2.26-9.29-3.78-14.06-5.36-28.75-1.02-49.66,11.55-72.56,27.36,10.17,11.34,19.1,26.22,22.71,41.11.22,1.36.21,1.85,1.09,2.95,8.99,2,21.83-9.21,30.28-10.65l.75.67-.03,1.77c-2.9.7-5.64,2.76-8.28,4.15-7.19,3.78-21.32,10.83-29.11,5.92-.29-.18-.57-.37-.84-.56.68-.31,1.53-.64,2.13-1.09,1.27-.96.99-2.41,1.04-3.82-4.95-13.12-12.09-28.28-21.94-38.43-1.61-.07-3.12-.02-4.58-.8l.16-.77c6.05-5.5,14.54-10.09,21.59-14.32.97-.53,1.59-1.17,2.34-1.98,1.46-4.69-.57-10.86-1.57-15.58,6.46,3.58,14.53,7.94,22.16,5.71,1.56-.46,3.09-1.03,4.61-1.6Z"/>
  <path class="cls-1" d="M462.4,425.64c6.64.58,17.43,1.61,21.98,7.03,1.06,1.27,2.03,2.72,2.82,4.17-3.43-1.06-7.38-4.15-10.74-5.85-4.49-2.26-9.29-3.78-14.06-5.36Z"/>
  <path class="cls-1" d="M406.41,498.36c.28.19.56.38.84.56,7.79,4.91,21.92-2.14,29.11-5.92,2.64-1.39,5.38-3.44,8.28-4.15,1.28.93,3.68.34,5.28.22-8.25,4.94-16.7,10.42-25.7,13.84-7.14,2.71-14.08,2.41-21.29,4.14-5.85,1.41-30.05,12.5-32.16,17.3.09,1.69.96,2.85,2.21,3.93,2.11,1.84,4.54,3.45,6.8,5.11-8.55-2.23-16.76-3.34-25.59-3.84l14.75-22.36c13.86.46,24.71-3.95,37.46-8.84Z"/>
  <path class="cls-1" d="M456.69,475.18c-3.72,5.32-6.8,9.77-12.05,13.67l.03-1.77-.75-.67c-8.46,1.44-21.29,12.65-30.28,10.65-.88-1.1-.87-1.59-1.09-2.95,16.35.3,31.67-9.26,44.14-18.93Z"/>
  <path class="cls-13" d="M466.98,502.14c-.31-2.44-.34-5.36,1.37-7.36,1.05-1.23,2.32-1.12,3.78-1.27-.44-3.1-6.41-6.63-7.18-12.53-.65-4.99,1.23-5.66,3.68-9.26.05-.07.32-.56.32-.58-.09-.89-5.16-8.33-5.8-12.13-.3-1.74-.17-3.01.87-4.5,1.1-.87,2.09-1.26,3.49-1.42,8.95-.98,20.89,10.74,27.67,16l2.75,2.44.89-.05.38-1.5-.35-3.17v-6.97c6.35,10.81,15.36,21.58,19.65,33.35,5.5,9.7,6.87,20.5,4.94,31.39.62,5.67,1.67,11.28,1.93,16.98.73,15.27-4.18,30.28-13.8,42.17-7.45,9.25-24.68,22.22-36.9,22.58-.49.01-.52-.01-.93-.09-4.84,10.1-26.01,23.92-36.32,27.57-.73.26-1.22.36-1.99.24-1.06,1.02-1.73,1.29-1.82,2.81-.26,4.33,6.89,23.73,8.45,29.33l-1.15-.49c-1.13-2.57-1.58-5.53-2.37-8.23-2.04-6.93-4.04-13.96-6.65-20.7-8.68,5.14-28.1,5.86-37.89,5.63-7.83-.18-15.76-1.33-23.57-2.01-3.42-.3-7.1-.12-10.45-.73-1.32-.24-2.31-.85-3.22-1.81.87-.64,27.71,2.22,31.43,2.46,14.51.95,31.22.34,44.57-5.8,1.36-.62,3.63-1.43,4.68-2.48.08-.08.15-.18.22-.27.6.05.64-.12,1.12-.45l-.56.18.54-.27c-2.8,1.17-5.62,2.67-8.51,3.56-21.75,6.72-42.1,3.79-63.95,2-5.71-.46-12.34-1.91-18.01-1.37,1.74,1.27,4.68.22,6.89,1.74.5,1.07.8,1.49.59,2.69-.3,1.74-2.07,4.12-3.57,5.1-1.64,1.07-2.23.73-3.96.32-.05.94-.11,1.89-.3,2.82-1.19,5.51-6.02,10.46-10.63,13.37-11.4,7.19-29.69,9.11-42.86,11.32-4.35.73-10.26,2.52-14.56,1.51-2.69.09-6.75-2.65-9.11-3.93-5.63-3.05-10.34-6.91-12.13-13.28-1-3.55-.69-6.72,1.18-9.92.9-1.54,1.62-2.05,3.32-2.48l-.19-1.72.75.11.32,1.47c.02-.16.05-.67.12-.8.09-.19.25-.34.37-.51-8.98-1.08-18.12-2.32-26.96-4.25-2.34-.51-3.93-.55-5.26-2.63,6.66,2.68,37.01,7.97,43.19,6.51,5.83,2.59,26.71,1.18,34.23,1.35,7.98.18,27.99,3.11,34.39.64.29-.11.57-.25.85-.38l2.3.27c1.35.15,2.99.12,4.14-.68,1.38-.96,3.16-2.46,3.41-4.18-1.3-2.8-4.45-2.23-6.69-3.58-1.16-.69-1.12-1.55-1.45-2.8-.13-.15-.28-.28-.38-.45-.75-1.33-.81-3.97-.94-5.5-.99-11.18,1.22-22.43,5.74-32.64,1.49-.86,3.01-1.65,4.54-2.45.21-3.67-1.05-5.73.43-9.47l.8,1.11c11.73,2.15,31.58-14.17,41.7-16.14,2.07-.01,4.31-1.72,6.04-2.79,7.43-4.58,14.35-10.19,20.71-16.14,3.78-3.53,7.49-7.69,11.72-10.65,2.2-1.54,5.26-3.21,8.05-2.56,1.72.41,2.95,1.62,3.8,3.11,1.67,2.92.96,6.1.08,9.13l.98.26c.81,4.16-5.93,15.87-8.81,19.07-2.5,2.78-7.43,5.66-9.07,8.92-.46.92-.21,1.18.15,2.05,1.29.88,2.71,1.06,4.24,1.15,10.66.66,23.25-3.4,31.09-10.58,4.79-4.38,8.33-9.78,10.81-15.75,9.79-23.61-12.25-29.23-11.34-51Z"/>
  <path class="cls-12" d="M354.35,595.47c3.28,1.21,7.89.27,10.95-1.26,6.35-3.16,12.04-8.87,18.02-12.82,12.11-7.99,25.42-14.51,36.77-23.61,6.5-5.21,11.81-12.36,18.64-17.05,1.93-1.32,4.55-2.86,6.96-2.32,1.13,1.03,1.42,1.48,1.43,3.11.06,6.33-5.57,16.18-10.15,20.6-3.91,3.77-17.32,14.09-17.06,19.46.05,1.03,1.04,1.98,1.81,2.6,5.09,4.17,12.48,3.82,18.66,3.11,6.76-.77,15-2.77,20.98-6.01,7.73-4.21,15.26-12.58,21.55-15.83,1.47-.76,2.52-1.08,4.11-.67.7,1.77.25,3.15-.49,4.84-7.43,17.04-27.44,29.73-44.12,36.05-2.43.92-6.53,2.98-9.08,2.7,5.06,1.37,12.28-.28,16.9-2.8.64-.35,1.17-.81,1.69-1.31.27.1.41.16.71.24,4.85,1.24,16.96-7.5,21.12-9.87,1.39-.79,1.78-1.14,3.34-.73-4.42,9.36-26.69,20.3-36.11,23.67-1.5.54-3.31,1.4-4.91,1.06-20.97,6.59-44.41,8.56-66.3,8.32-4.02-.05-8.3.19-12.27-.51-1.68-.29-3.11-.81-4.09-2.26-4.4-6.51-.44-21.4.94-28.7Z"/>
  <path class="cls-12" d="M511.42,513.7c-3.38-8.46-7.82-15.21-13.92-21.99-3.65-4.05-7.55-8.02-11.65-11.61-4.31-3.77-21.59-15.16-19-22.1.39-1.04.93-1.1,1.85-1.53,8.11.05,27.24,17.08,32.91,22.84,9.08,9.22,19.51,20.72,19.41,34.44-.09,12.4-5.99,32.49-13.33,42.5-2.51-1.15-5.44-.39-7.97-1.37-1.69-.65-1.88-1.56-2.52-3.1l.02-.61c.57-17.16-31.64-43.85-26.73-54.09,1.44-.81,2.12-1.13,3.81-.61,10.29,3.17,25.16,25.91,30.17,34.94-2.51-8.66-6.01-15.68-11.62-22.82-5.58-7.12-26.85-22.7-24.79-32.31.96-1.32,1.09-1.45,2.63-1.99,7.29.57,24.67,19.32,29.39,24.85,4,4.68,7.41,9.8,11.33,14.53Z"/>
  <path class="cls-12" d="M275.46,642.8c5.83,2.59,26.71,1.18,34.23,1.35,7.98.18,27.99,3.11,34.39.64.29-.11.57-.25.85-.38.21,3.31-1.05,6.22-3.22,8.72-.81.92-1.57,1.82-2.84,2.01-3.52,5.7-14.98,8.04-21.15,9.49-8.43,2-16.85,3.01-25.37,4.42-3.27.54-6.95,1.81-10.21,1.76-1.37-.02-1.81-.39-2.97-1.07-.29-.69-.6-1.02-.36-1.78,1.1-3.48,6.84-4.54,7.91-7.63-1.11-.62-1.6-.83-2.86-.39-4.07,1.42-6.6,7.73-11.27,7.32-1.2-.62-1.8-.97-2.45-2.16.26-2.01,1-2.88,2.59-4.13,2.22-1.73,6.51-3.57,7.27-6.32-3.56,1.72-11.55,7.42-15.25,6.83-.9-.8-1.23-1.23-1.24-2.5,0-1.12.54-2.38,1.02-3.38l-2.19-1.17c-.78-.05-.76-.05-1.32-.58.11-1.18.27-2.26.84-3.31,2.3-4.21,9.25-6.41,13.6-7.74Z"/>
  <path class="cls-10" d="M275.46,642.8c5.83,2.59,26.71,1.18,34.23,1.35,7.98.18,27.99,3.11,34.39.64.29-.11.57-.25.85-.38.21,3.31-1.05,6.22-3.22,8.72-.81.92-1.57,1.82-2.84,2.01-2.37-.78-5.77-.67-8.3-1.02-13.13-1.85-26-4.03-39.33-3.74-3.74.08-14.41,2.66-17.08,1.89-.41-.12-1.14-.78-1.53-1.04-1.79,1.49-5.83,4.35-8.1,4.39l-2.19-1.17c-.78-.05-.76-.05-1.32-.58.11-1.18.27-2.26.84-3.31,2.3-4.21,9.25-6.41,13.6-7.74Z"/>
  <path class="cls-5" d="M262.34,654.44c3.09.1,9.18-5.67,13.22-6.24,1.1-.15,1.21-.13,2.11.51-1.17,1.38-3.38,1.89-5.04,2.51-1.79,1.49-5.83,4.35-8.1,4.39l-2.19-1.17Z"/>
  <path class="cls-10" d="M351.05,594.86l1.45.98,1.85-.36c-1.38,7.3-5.34,22.19-.94,28.7.98,1.45,2.41,1.97,4.09,2.26,3.96.7,8.24.46,12.27.51,21.89.24,45.33-1.73,66.3-8.32-2.12,3.49-6.23,2.12-8.88,4.27,15.14-1.85,31.84-8.64,43.74-18.08l-.15.52c-9.28,13.72-33.4,27.48-49.48,30.61-6.75,1.28-13.58,2.03-20.44,2.24-8.02.18-48.59-2.08-54.22-4.73-.13-.15-.28-.28-.38-.45-.75-1.33-.81-3.97-.94-5.5-.99-11.18,1.22-22.43,5.74-32.64Z"/>
  <path class="cls-17" d="M521.04,534.23c.98-3.22,1.93-6.33,2.39-9.67.62,5.67,1.67,11.28,1.93,16.98.73,15.27-4.18,30.28-13.8,42.17-7.45,9.25-24.68,22.22-36.9,22.58-.49.01-.52-.01-.93-.09l.42-1c1.23-.71,1.48-1.38,2.17-2.55,6.05-5,11.42-21.45,13.73-28.88l.78-2.77c1.46-1.91,6.99-3.11,9.42-4.15,9.63-4.14,14.57-15.24,18.19-24.38l2.59-8.25Z"/>
  <path class="cls-4" d="M521.04,534.23c.98-3.22,1.93-6.33,2.39-9.67.62,5.67,1.67,11.28,1.93,16.98.73,15.27-4.18,30.28-13.8,42.17-7.45,9.25-24.68,22.22-36.9,22.58-.49.01-.52-.01-.93-.09l.42-1c1.23-.71,1.48-1.38,2.17-2.55.39.17.73.26,1.16.21,1.94-.22,4.26-1.42,6.07-2.19,11.19-4.73,20.51-12.11,27.59-22.03,9.37-13.12,12.48-28.64,9.89-44.41Z"/>
  <path class="cls-4" d="M518.45,542.47c1.32,5.81-1.77,12.62-4.85,17.43-4.46,6.96-12.17,12.34-20.27,14.15-1.41.31-1.91.15-3.27-.29l.78-2.77c1.46-1.91,6.99-3.11,9.42-4.15,9.63-4.14,14.57-15.24,18.19-24.38Z"/>
  <path class="cls-1" d="M466.98,502.14c3.14,10.29,10.93,17.94,17.05,26.54,3.23,4.54,5.86,9.35,8.22,14.39-1.91,5.49-2.19,11.42-4.01,16.96-1.74.09-3.45.38-4.99,1.23-3.46,1.91-6.75,5.42-9.81,7.99-8.73,7.31-19.74,13.46-31.13,14.96-4.89.64-14.02,1.42-18.04-1.67-1.72-6.27,13.44-17.01,17.44-21.95,3.13-3.87,5.17-8.09,7.21-12.58l.98.26c.81,4.16-5.93,15.87-8.81,19.07-2.5,2.78-7.43,5.66-9.07,8.92-.46.92-.21,1.18.15,2.05,1.29.88,2.71,1.06,4.24,1.15,10.66.66,23.25-3.4,31.09-10.58,4.79-4.38,8.33-9.78,10.81-15.75,9.79-23.61-12.25-29.23-11.34-51Z"/>
  <path class="cls-1" d="M356.02,582.94l.8,1.11c11.73,2.15,31.58-14.17,41.7-16.14-2.74,3.7-10.55,6.99-14.6,9.64-6.54,4.28-12.64,9.89-19.37,13.74-1.63.93-3.57,1.61-5.42,1.89-1.42.22-2.36.03-3.54-.78.21-3.67-1.05-5.73.43-9.47Z"/>
  <path class="cls-10" d="M493.05,556.5c.15-.05.3-.09.45-.14,2.04-.71,2.77-2.77,3.7-4.56.65,1.54.84,2.45,2.52,3.1,2.53.97,5.45.21,7.97,1.37-4.06,4.32-8.77,8.6-14.42,10.68l-1.21-.15c-.26-1.41-.46-2.87-.89-4.24l1.88-6.06Z"/>
  <path class="cls-10" d="M451.93,604.26c11.81-4.59,27.28-15.73,33.48-26.92-.17.81-.39,1.61-.65,2.4-1.33,4.05-3.93,12.25-7.66,14.17-1.57-.41-1.96-.06-3.34.73-4.16,2.37-16.27,11.11-21.12,9.87-.3-.08-.43-.14-.71-.24Z"/>
  <path class="cls-4" d="M492.25,543.07c2.49,5.01,1.85,8.04.8,13.42l-1.88,6.06-2.92-2.52c1.82-5.54,2.09-11.47,4.01-16.96Z"/>
  <path class="cls-10" d="M498.83,466.79c5.3,5.13,10.46,14.41,13.67,20.98-.1-.08-.21-.15-.3-.23-1.5-1.3-11.58-13.21-12.43-14.87-.42-.82-.53-1.81-.59-2.71l-.35-3.17Z"/>
  <path class="cls-14" d="M442.05,666.15c-1.56-5.59-8.71-24.99-8.45-29.33.09-1.52.76-1.79,1.82-2.81.94,6.06,3.7,12.47,5.6,18.33,2.89,8.92,5.51,17.79,7.83,26.88,9.85,38.66,15.58,78.01,19.75,117.64.51,4.87,2.81,12.97,1.1,17.44-1.18.74-1.42.66-2.84.58.94-7.49-1.12-17.26-1.95-24.75-4.66-41.97-11.73-83.22-22.86-123.98Z"/>
  <path class="cls-12" d="M439.65,245.31c4.18-7.91,11.69-10.76,19.69-13.35-.38,2.77-.38,5.42-.32,8.21,1.98,4.15,3.91,7.27,8.43,8.87,8.11,2.86,17.57,2.14,26.01,3.53,26.33,4.47,48.92,21.3,60.72,45.25,6.84,13.81,11.5,34.89,7.09,50.08-1.34,13.6-10.19,28.65-18.87,38.86,2.32,7.05,2.63,13.63-.82,20.43-3.75,7.4-11.68,13.67-19.57,16.1-8.46,2.61-18.47,1.75-26.39-2.17-4.01,2.15-8.04,4.06-12.48,5.16l-5.16-1.61c-2.89-.97-6.08-1.45-9.07-2.11-12.9-1.94-24.07-.62-36.57,3.11-1.52.57-3.06,1.14-4.61,1.6-7.64,2.24-15.71-2.13-22.16-5.71l-3.62-2.24c-5.89-4.6-11.41-9.65-16.92-14.71l-2.9-2.9c-7.19-9.91-11.49-18.43-13.25-30.64l.28-.53c-.68-11.75.87-23.85,8.37-33.39,2.52-3.2,6.13-5.83,8.07-9.42,4.16-7.69,5.9-17.85,8.14-26.28.26-1.14.67-2.28,1.02-3.41.94-4.05,2.47-8.22,4.15-12.02,6.2-13.94,16.9-23.15,30.94-28.53,2.06-.9,4.26-1.54,6.39-2.24.86-3.5,1.84-6.71,3.4-9.97Z"/>
  <path class="cls-10" d="M439.65,245.31c4.18-7.91,11.69-10.76,19.69-13.35-.38,2.77-.38,5.42-.32,8.21,1.98,4.15,3.91,7.27,8.43,8.87,8.11,2.86,17.57,2.14,26.01,3.53,26.33,4.47,48.92,21.3,60.72,45.25,6.84,13.81,11.5,34.89,7.09,50.08-.95-8.22.28-16.41-.74-24.66-2.24,3.37,1.72,11.82-.51,16l-.54-.6c-2.24,7.37-1.92,13.39-5.51,21.52-2.55,2.21-3.91,5.31-5.8,8.05-3.09,4.47-6.59,7.98-10.82,11.36-1.76-1.25-3.6-2.17-5.67-2.8-6.35-1.93-12.64-.35-18.35,2.67-1.24-.9-1.81-1.09-2.27-2.6,3.32-6.24,9.66-11.77,13.88-17.55,11.1-15.21,15.44-31.33,12.48-49.94-1.35-3.3-2.62-6.34-4.71-9.27-17.77-24.83-54.01-15.09-78.64-19.39-9.21-3.19-14.14-5.71-16.82-15.4-.55-1.98-.76-4.28-1.81-6.03l-.99.11-2.06.3,1.45-1.43v-.72s-3.97,0-3.97,0c2.06-.9,4.26-1.54,6.39-2.24.86-3.5,1.84-6.71,3.4-9.97Z"/>
  <path class="cls-9" d="M439.65,245.31c4.18-7.91,11.69-10.76,19.69-13.35-.38,2.77-.38,5.42-.32,8.21,1.98,4.15,3.91,7.27,8.43,8.87,8.11,2.86,17.57,2.14,26.01,3.53,26.33,4.47,48.92,21.3,60.72,45.25,6.84,13.81,11.5,34.89,7.09,50.08-.95-8.22.28-16.41-.74-24.66-2.24,3.37,1.72,11.82-.51,16l-.54-.6c.86-13.73-1.91-27.45-8.03-39.77-11.41-22.88-34.57-38.9-59.7-42.93-8.2-1.31-17.69-.57-25.53-3.34-4.46-1.58-7.17-5.68-9.13-9.73-.71-2.11-.3-4.19-1-6.28-1.56-.4-2.35.15-3.8.7-6.13,3.29-8.01,6.48-11.4,12.35l-.41-.47c.06-1.4.53-2.1,1.28-3.22l.29-.42-.2-.49-2.19.27Z"/>
  <path class="cls-11" d="M439.65,245.31l2.19-.27.2.49-.29.42c-.76,1.12-1.22,1.82-1.28,3.22l.41.47c-1.04,7.11-2,14.48,2.62,20.65,4.01,5.35,11.02,7.23,17.35,8.05,4.59.6,9.29.5,13.91.49,17.18.52,41.83.18,54.49,13.67,3.05,3.25,8.3,11.85,8.2,16.51,0,.11-.02.22-.02.33-1.35-3.3-2.62-6.34-4.71-9.27-17.77-24.83-54.01-15.09-78.64-19.39-9.21-3.19-14.14-5.71-16.82-15.4-.55-1.98-.76-4.28-1.81-6.03l-.99.11-2.06.3,1.45-1.43v-.72s-3.97,0-3.97,0c2.06-.9,4.26-1.54,6.39-2.24.86-3.5,1.84-6.71,3.4-9.97Z"/>
  <path class="cls-13" d="M440.88,249.64c3.39-5.86,5.27-9.05,11.4-12.35l-.16.55c-.92,3.08-2.55,5.69-3.71,8.65-2.08,5.31-1.26,12.93,1.41,17.9,4.04,7.53,13.34,11.37,21.19,13.56.66.18,1.33.32,2,.48l1.74.41c-4.62.01-9.32.11-13.91-.49-6.33-.82-13.34-2.7-17.35-8.05-4.62-6.17-3.66-13.55-2.62-20.65Z"/>
  <path class="cls-9" d="M454.23,258.4c.35.3.21.15.52.54l.32.42c4.4,5.65,12.07,11.21,19.42,11.85,3.77.33,7.57-.29,11.33.18l-.26.63c-2.43.86-4.78,1.61-7.36,1.77-6.52.39-13.86-1.8-18.77-6.21-2.64-2.37-4.99-5.56-5.21-9.18Z"/>
  <path class="cls-13" d="M394.76,298.07c.94-4.05,2.47-8.22,4.15-12.02,6.2-13.94,16.9-23.15,30.94-28.53h3.96s.01.71.01.71l-1.45,1.43c-3.8,2.06-7.88,3.51-11.58,5.79-12.64,7.8-19.14,20.55-23.25,34.31-2.68,8.97-4.32,19.43-8.52,27.8-2.62,5.23-7.49,9.11-10.62,14.06-8.77,13.84-8.29,33.21-.57,47.36,8.64,15.82,25.06,29.43,42.42,34.44,3.98,1.15,8,1.75,12.1,2.28-1.52.57-3.06,1.14-4.61,1.6-7.64,2.24-15.71-2.13-22.16-5.71l-3.62-2.24c-5.89-4.6-11.41-9.65-16.92-14.71l-2.9-2.9c-7.19-9.91-11.49-18.43-13.25-30.64l.28-.53c-.68-11.75.87-23.85,8.37-33.39,2.52-3.2,6.13-5.83,8.07-9.42,4.16-7.69,5.9-17.85,8.14-26.28.26-1.14.67-2.28,1.02-3.41Z"/>
  <path class="cls-6" d="M559.48,338.64l.54.6c2.23-4.18-1.73-12.63.51-16,1.02,8.24-.21,16.44.74,24.66-1.34,13.6-10.19,28.65-18.87,38.86,2.32,7.05,2.63,13.63-.82,20.43-3.75,7.4-11.68,13.67-19.57,16.1-8.46,2.61-18.47,1.75-26.39-2.17-4.01,2.15-8.04,4.06-12.48,5.16l-5.16-1.61c5.56-1.17,10.61-2.82,15.78-5.19-.71-2.51-1.19-4.78-1.32-7.38,2.83.98,5.36,7.2,11.32,8.61,7.92,1.88,16.8.39,23.68-3.9,6.14-3.83,11.47-9.7,13.05-16.91,1.08-4.92.33-10.59-2.52-14.81-2.19-3.25-5.58-5.37-9.44-6.03-8.35-1.43-12.19,1.73-18.38,6.15l-.6-.22c.02-.27.05-.54.1-.81.37-2.2,2-3.49,3.68-4.74,5.71-3.01,12.01-4.59,18.35-2.67,2.07.63,3.91,1.55,5.67,2.8,4.23-3.39,7.73-6.89,10.82-11.36,1.89-2.74,3.25-5.84,5.8-8.05,3.59-8.13,3.27-14.14,5.51-21.52Z"/>
  <path class="cls-5" d="M537.35,379.57c4.23-3.39,7.73-6.89,10.82-11.36,1.89-2.74,3.25-5.84,5.8-8.05-3.36,8.53-7.76,15.91-13.42,23.12l-3.2-3.71Z"/>
  <path class="cls-10" d="M468.92,422.57c8.8-3.62,16.24-3.06,23.53-10.46.12,2.6.61,4.87,1.32,7.38-5.16,2.37-10.22,4.02-15.78,5.19-2.89-.97-6.08-1.45-9.07-2.11Z"/>
  <path class="cls-10" d="M434.43,259.36l.99-.11c1.06,1.75,1.27,4.06,1.81,6.03,2.68,9.69,7.62,12.21,16.82,15.4-.65.14-1.3.24-1.97.25-4.72.06-10.4-.21-13.88-3.81-4.49-4.66-3.8-11.83-3.78-17.76Z"/>
  <path class="cls-16" d="M405.7,391.69c-4.73-5.45-5.96-17.21-9.25-19.77-.13-.1-.27-.2-.4-.3l.12-.73h1.13c2.97,1.81,4.98,5.21,7.51,7.61,6.24,5.91,23.43,6.96,31.67,6.82l4.22-.73c.22-.7.24-1.02.06-1.73,1.3-.49,2.4-.33,3.69.19,1.22.48,1.93,1.19,2.57,2.3-.14,1.03-.1,1.36-.94,2-2.04,1.55-5.19,2.3-7.52,3.93-6.31,4.8-14.18,8.4-22.32,7.35-3.85-.5-7.07-2.08-9.4-5.24-.41-.54-.78-1.11-1.13-1.69Z"/>
  <path class="cls-6" d="M437.82,390.94l.72.33c-6.31,4.8-14.18,8.4-22.32,7.35-3.85-.5-7.07-2.08-9.4-5.24-.41-.54-.78-1.11-1.13-1.69,1.89.84,4.63,2.53,6.63,2.74,1.28.55,2.77.96,4.14,1.17,4.14.63,10.76-.19,14.14-2.74.13.05.26.1.4.15,2.08.64,4.97-1.18,6.82-2.06Z"/>
  <path class="cls-5" d="M412.33,394.43c.35-.44.64-.82,1.12-1.11,3.92-2.4,12.84-1.56,17.16-.46-3.38,2.56-9.99,3.37-14.14,2.74-1.37-.21-2.87-.62-4.14-1.17Z"/>
  <path class="cls-15" d="M436.47,385.31l4.22-.73c.22-.7.24-1.02.06-1.73,1.3-.49,2.4-.33,3.69.19,1.22.48,1.93,1.19,2.57,2.3-.14,1.03-.1,1.36-.94,2-2.04,1.55-5.19,2.3-7.52,3.93l-.72-.33c.21-.2.41-.4.62-.6,1.22-1.22,2.37-2.45,2.38-4.2-1.49-1.02-2.57-.78-4.35-.83Z"/>
  <path class="cls-10" d="M514.1,392.89c4.37-2.6,10.26-5.86,15.51-4.49,2.08.54,3.86,1.89,4.95,3.75,1.08,1.83,1.68,4.34,1.71,6.46l-1-.64.17.18-1.27-2.69c-3.69,1.05-7.23,2.04-9.24,5.62-.41.74-.79,1.53-1,2.35-1.51,2.25-3.67,4.01-5.65,5.83,1.23-2.1,2.91-4.79,3.14-7.25.26-2.76-1.01-4.43-2.58-6.5-2.66-.02-5.57.92-8.15.34.63-1.42,2.14-2.08,3.41-2.95Z"/>
  <path class="cls-6" d="M514.1,392.89c4.37-2.6,10.26-5.86,15.51-4.49,2.08.54,3.86,1.89,4.95,3.75,1.08,1.83,1.68,4.34,1.71,6.46l-1-.64.17.18-1.27-2.69c-.96-1.23-1.9-2.35-3.27-3.14-3.4-1.95-7.47-.43-10.95.49-1.86.26-4.09.9-5.85.08Z"/>
  <path class="cls-13" d="M514.1,392.89c1.75.81,3.98.18,5.85-.08,1.8,1.11,3.23,2.1,3.73,4.31.14.65.23,1.32.28,1.98-1.51-1.86-2.73-3.05-5.11-3.59-2.66-.02-5.57.92-8.15.34.63-1.42,2.14-2.08,3.41-2.95Z"/>
  <path class="cls-16" d="M454.02,348.56c2.6-.19,5.2-.09,7.74.58,4.62,1.22,8.9,4.4,11.3,8.54.99,1.71,2.1,4.11,1.48,6.1-.14.45-.73.58-1.13.79-1.95-.57-3.18-2.68-4.37-4.23-10.31-10.35-11.47-5.19-22.12-5.76-1.04-.06-1.57.06-2.29-.76.09-.19.15-.4.27-.57,1.86-2.72,6.17-3.97,9.11-4.69Z"/>
  <path class="cls-6" d="M462.94,310.99c5.1-.55,9,.05,13.67,2.22,5.1,2.36,10.95,6.93,12.89,12.4,1,2.81,1.44,5.13.1,7.89-4.28-5.26-6.81-10.71-12.69-14.65-3.76-2.52-12.32-3.07-14.7-6.32l.74-1.54Z"/>
  <path class="cls-6" d="M411.64,290.63c2.54.23,4.87.62,7.18,1.77,2.46,1.23,4.01,3.46,4.83,6.02l-.45.8c-2.44-.03-5.12-2.26-7.52-3.07l-.52-.17c-1.05-.04-2.09-.05-3.15-.05-3.9,0-7.01,2.22-10.81,2.66l-.81-.84c.05-.76-.02-1.08.44-1.68,2.26-2.99,7.22-4.86,10.81-5.44Z"/>
  <path class="cls-6" d="M410.61,349.58c1.72-.08,3.62-.26,5.32.05,4.55.83,7.01,4.59,9.36,8.17-2.76-1.61-5.33-3.5-8.3-4.74-1.76-.73-4.06-1.4-5.87-.52-1.31.64-1.95,2.06-2.32,3.39-.72,2.63.25,4.46,1.53,6.65,3.15,2.01,6.54,2.72,9.88,4.26l-.1.99.1-.03c-.82.07-1.65.11-2.47.06-3.9-.24-7.06-1.19-9.66-4.26-1.6-1.88-2.51-4.26-2.22-6.75.4-3.46,2.08-5.24,4.74-7.28Z"/>
  <path class="cls-16" d="M398.69,327.47c2.42-.17,4.66-.27,6.95.69,3.07,1.29,5.47,3.79,6.61,6.92.64,1.71.72,3.06-.05,4.71l-.89-.1-1.61-2.28c-5.49-5.83-9.61-4.18-16.71-5.51l-.02-.75c1.68-1.65,3.65-2.6,5.73-3.67Z"/>
</svg>